<?xml version="1.0" encoding="UTF-8" standalone="no"?>
<?xml-stylesheet href="style.css" type="text/css"?>
<!DOCTYPE svg PUBLIC "-//W3C//DTD SVG 1.1//EN"
 "http://www.w3.org/Graphics/SVG/1.1/DTD/svg11.dtd">
<!-- Generated by graphviz version 2.38.0 (20140413.2041)
 -->
<!-- Title: 320.svg Pages: 1 -->
<svg width="1421pt" height="179pt"
 viewBox="0.00 0.00 1421.00 179.00" xmlns="http://www.w3.org/2000/svg" xmlns:xlink="http://www.w3.org/1999/xlink">
<g id="graph0" class="graph" transform="scale(1 1) rotate(0) translate(4 175)">
<title>320.svg</title>
<polygon fill="white" stroke="none" points="-4,4 -4,-175 1417,-175 1417,4 -4,4"/>
<!-- r0 -->
<g id="node1" class="node"><title>r0</title>
<polygon fill="none" stroke="black" stroke-dasharray="5,2" points="218.5,-171 195.5,-171 195.5,-153 218.5,-153 218.5,-171"/>
<text text-anchor="middle" x="207" y="-159.8" font-family="serif" font-size="9.00">0</text>
</g>
<!-- v20 -->
<g id="v20_Field" class="node"><title>v20</title>
<ellipse fill="none" stroke="black" cx="25" cy="-11" rx="25" ry="11"/>
<text text-anchor="middle" x="25" y="-8.8" font-family="sans-serif" font-size="9.00">Field</text>
</g>
<!-- r0&#45;&gt;v20 -->
<g id="edge5" class="edge"><title>r0&#45;&gt;v20</title>
<path fill="none" stroke="black" d="M195.45,-155.614C179.854,-148.077 151.535,-133.448 130,-117 92.3542,-88.2463 54.6549,-46.674 36.3739,-25.4987"/>
<polygon fill="black" stroke="black" points="32.9824,-21.5454 37.9457,-23.8753 34.6102,-23.4429 36.238,-25.3403 36.238,-25.3403 36.238,-25.3403 34.6102,-23.4429 34.5303,-26.8054 32.9824,-21.5454 32.9824,-21.5454"/>
</g>
<!-- v2 -->
<g id="v2_Aura" class="node"><title>v2</title>
<ellipse fill="none" stroke="black" cx="204" cy="-69" rx="21.5" ry="11"/>
<text text-anchor="middle" x="204" y="-66.8" font-family="sans-serif" font-size="9.00">Aura</text>
</g>
<!-- r0&#45;&gt;v2 -->
<g id="edge8" class="edge"><title>r0&#45;&gt;v2</title>
<path fill="none" stroke="black" d="M206.734,-152.924C206.233,-137.736 205.144,-104.696 204.502,-85.2178"/>
<polygon fill="black" stroke="black" points="204.333,-80.1095 206.747,-85.0327 204.416,-82.6082 204.498,-85.1068 204.498,-85.1068 204.498,-85.1068 204.416,-82.6082 202.249,-85.181 204.333,-80.1095 204.333,-80.1095"/>
</g>
<!-- v0 -->
<g id="v0_Aura" class="node"><title>v0</title>
<ellipse fill="none" stroke="black" cx="143" cy="-69" rx="21.5" ry="11"/>
<text text-anchor="middle" x="143" y="-66.8" font-family="sans-serif" font-size="9.00">Aura</text>
</g>
<!-- r0&#45;&gt;v0 -->
<g id="edge7" class="edge"><title>r0&#45;&gt;v0</title>
<path fill="none" stroke="black" d="M201.32,-152.924C190.434,-137.446 166.509,-103.427 152.928,-84.1163"/>
<polygon fill="black" stroke="black" points="149.712,-79.5439 154.429,-82.3393 151.15,-81.5888 152.589,-83.6337 152.589,-83.6337 152.589,-83.6337 151.15,-81.5888 150.748,-84.9281 149.712,-79.5439 149.712,-79.5439"/>
</g>
<!-- v21 -->
<g id="v21_Aura" class="node"><title>v21</title>
<ellipse fill="none" stroke="black" cx="1060" cy="-69" rx="21.5" ry="11"/>
<text text-anchor="middle" x="1060" y="-66.8" font-family="sans-serif" font-size="9.00">Aura</text>
</g>
<!-- r0&#45;&gt;v21 -->
<g id="edge4" class="edge"><title>r0&#45;&gt;v21</title>
<path fill="none" stroke="black" d="M218.734,-159.748C309.72,-150.042 902.596,-86.7922 1034.16,-72.7562"/>
<polygon fill="black" stroke="black" points="1039.37,-72.2011 1034.63,-74.9689 1036.88,-72.4664 1034.4,-72.7316 1034.4,-72.7316 1034.4,-72.7316 1036.88,-72.4664 1034.16,-70.4943 1039.37,-72.2011 1039.37,-72.2011"/>
</g>
<!-- v1 -->
<g id="v1_Aura" class="node"><title>v1</title>
<ellipse fill="none" stroke="black" cx="304" cy="-69" rx="21.5" ry="11"/>
<text text-anchor="middle" x="304" y="-66.8" font-family="sans-serif" font-size="9.00">Aura</text>
</g>
<!-- r0&#45;&gt;v1 -->
<g id="edge6" class="edge"><title>r0&#45;&gt;v1</title>
<path fill="none" stroke="black" d="M218.791,-154.188C231.913,-146.269 253.331,-132.315 269,-117 279.221,-107.01 288.764,-93.8306 295.296,-83.9707"/>
<polygon fill="black" stroke="black" points="298.076,-79.6974 297.235,-85.1155 296.713,-81.7928 295.349,-83.8883 295.349,-83.8883 295.349,-83.8883 296.713,-81.7928 293.463,-82.6612 298.076,-79.6974 298.076,-79.6974"/>
</g>
<!-- r1 -->
<g id="node2" class="node"><title>r1</title>
<polygon fill="none" stroke="black" stroke-dasharray="5,2" points="1338.5,-171 1315.5,-171 1315.5,-153 1338.5,-153 1338.5,-171"/>
<text text-anchor="middle" x="1327" y="-159.8" font-family="serif" font-size="9.00">1</text>
</g>
<!-- v12 -->
<g id="v12_Locale" class="node"><title>v12</title>
<ellipse fill="none" stroke="black" cx="1327" cy="-69" rx="29" ry="11"/>
<text text-anchor="middle" x="1327" y="-66.8" font-family="sans-serif" font-size="9.00">Locale</text>
</g>
<!-- r1&#45;&gt;v12 -->
<g id="edge9" class="edge"><title>r1&#45;&gt;v12</title>
<path fill="none" stroke="black" d="M1327,-152.924C1327,-137.736 1327,-104.696 1327,-85.2178"/>
<polygon fill="black" stroke="black" points="1327,-80.1095 1329.25,-85.1095 1327,-82.6095 1327,-85.1095 1327,-85.1095 1327,-85.1095 1327,-82.6095 1324.75,-85.1096 1327,-80.1095 1327,-80.1095"/>
</g>
<!-- v3 -->
<g id="v3_Localeattack" class="node"><title>v3</title>
<ellipse fill="none" stroke="black" cx="885" cy="-69" rx="50.5" ry="11"/>
<text text-anchor="middle" x="885" y="-66.8" font-family="sans-serif" font-size="9.00">Localeattack</text>
</g>
<!-- r1&#45;&gt;v3 -->
<g id="edge11" class="edge"><title>r1&#45;&gt;v3</title>
<path fill="none" stroke="black" d="M1315.18,-158.566C1259.21,-147.042 1019.6,-97.7122 924.31,-78.0932"/>
<polygon fill="black" stroke="black" points="919.335,-77.069 924.686,-75.8736 921.784,-77.5732 924.233,-78.0774 924.233,-78.0774 924.233,-78.0774 921.784,-77.5732 923.779,-80.2812 919.335,-77.069 919.335,-77.069"/>
</g>
<!-- v18 -->
<g id="v18_Locale" class="node"><title>v18</title>
<ellipse fill="none" stroke="black" cx="1384" cy="-11" rx="29" ry="11"/>
<text text-anchor="middle" x="1384" y="-8.8" font-family="sans-serif" font-size="9.00">Locale</text>
</g>
<!-- r1&#45;&gt;v18 -->
<g id="edge10" class="edge"><title>r1&#45;&gt;v18</title>
<path fill="none" stroke="black" d="M1331.47,-152.685C1339.11,-138.227 1354.83,-107.376 1365,-80 1371.55,-62.3487 1377.08,-41.3973 1380.46,-27.4613"/>
<polygon fill="black" stroke="black" points="1381.69,-22.3066 1382.72,-27.6918 1381.11,-24.7386 1380.53,-27.1707 1380.53,-27.1707 1380.53,-27.1707 1381.11,-24.7386 1378.34,-26.6495 1381.69,-22.3066 1381.69,-22.3066"/>
</g>
<!-- r2 -->
<g id="node3" class="node"><title>r2</title>
<polygon fill="none" stroke="black" stroke-dasharray="5,2" points="1021.5,-171 998.5,-171 998.5,-153 1021.5,-153 1021.5,-171"/>
<text text-anchor="middle" x="1010" y="-159.8" font-family="serif" font-size="9.00">2</text>
</g>
<!-- v9 -->
<g id="v9_Area(0)" class="node"><title>v9</title>
<ellipse fill="none" stroke="black" cx="525" cy="-69" rx="32.5" ry="11"/>
<text text-anchor="middle" x="525" y="-66.8" font-family="sans-serif" font-size="9.00">Area(0)</text>
</g>
<!-- r2&#45;&gt;v9 -->
<g id="edge1" class="edge"><title>r2&#45;&gt;v9</title>
<path fill="none" stroke="black" d="M998.49,-158.84C937.75,-147.444 653.641,-94.1367 557.157,-76.0335"/>
<polygon fill="black" stroke="black" points="552.16,-75.096 557.489,-73.8067 554.617,-75.5571 557.074,-76.0181 557.074,-76.0181 557.074,-76.0181 554.617,-75.5571 556.659,-78.2295 552.16,-75.096 552.16,-75.096"/>
</g>
<!-- v10 -->
<g id="v10_Area(2)" class="node"><title>v10</title>
<ellipse fill="none" stroke="black" cx="1247" cy="-69" rx="32.5" ry="11"/>
<text text-anchor="middle" x="1247" y="-66.8" font-family="sans-serif" font-size="9.00">Area(2)</text>
</g>
<!-- r2&#45;&gt;v10 -->
<g id="edge2" class="edge"><title>r2&#45;&gt;v10</title>
<path fill="none" stroke="black" d="M1021.82,-157.918C1046.18,-151.428 1103.59,-135.423 1150,-117 1176.94,-106.308 1206.78,-91.3507 1226.16,-81.2024"/>
<polygon fill="black" stroke="black" points="1230.85,-78.7315 1227.48,-83.052 1228.64,-79.8963 1226.43,-81.0611 1226.43,-81.0611 1226.43,-81.0611 1228.64,-79.8963 1225.38,-79.0703 1230.85,-78.7315 1230.85,-78.7315"/>
</g>
<!-- v16 -->
<g id="v16_Area(1)" class="node"><title>v16</title>
<ellipse fill="none" stroke="black" cx="1040" cy="-11" rx="32.5" ry="11"/>
<text text-anchor="middle" x="1040" y="-8.8" font-family="sans-serif" font-size="9.00">Area(1)</text>
</g>
<!-- r2&#45;&gt;v16 -->
<g id="edge3" class="edge"><title>r2&#45;&gt;v16</title>
<path fill="none" stroke="black" d="M1011.34,-152.959C1014.26,-135.576 1021.55,-93.2233 1029,-58 1031.19,-47.6584 1033.96,-36.0854 1036.17,-27.1346"/>
<polygon fill="black" stroke="black" points="1037.4,-22.1966 1038.37,-27.5922 1036.8,-24.6226 1036.19,-27.0485 1036.19,-27.0485 1036.19,-27.0485 1036.8,-24.6226 1034.01,-26.5048 1037.4,-22.1966 1037.4,-22.1966"/>
</g>
<!-- e0 -->
<g id="node4" class="node"><title>e0</title>
</g>
<!-- e0&#45;&gt;v0 -->
<g id="edge32" class="edge"><title>e0&#45;&gt;v0</title>
<path fill="none" stroke="green" d="M140,-116C140,-116 141.45,-93.7609 142.334,-80.2089"/>
</g>
<!-- v14 -->
<g id="v14_Child" class="node"><title>v14</title>
<ellipse fill="none" stroke="black" cx="93" cy="-11" rx="25" ry="11"/>
<text text-anchor="middle" x="93" y="-8.8" font-family="sans-serif" font-size="9.00">Child</text>
</g>
<!-- e0&#45;&gt;v14 -->
<g id="edge33" class="edge"><title>e0&#45;&gt;v14</title>
<path fill="none" stroke="green" d="M140,-116C140,-116 121.121,-98.1016 112,-80 102.292,-60.734 96.9521,-35.8181 94.5626,-22.1272"/>
</g>
<!-- v23 -->
<g id="v23_GPS(1)" class="node"><title>v23</title>
<ellipse fill="none" stroke="black" cx="373" cy="-11" rx="29" ry="11"/>
<text text-anchor="middle" x="373" y="-8.8" font-family="sans-serif" font-size="9.00">GPS(1)</text>
</g>
<!-- e0&#45;&gt;v23 -->
<g id="edge34" class="edge"><title>e0&#45;&gt;v23</title>
<path fill="none" stroke="green" d="M140,-116C140,-116 298.232,-105.361 334,-80 354.205,-65.6734 365.393,-37.3481 370.173,-22.1695"/>
</g>
<!-- e1 -->
<g id="node5" class="node"><title>e1</title>
</g>
<!-- v7 -->
<g id="v7_Liongroup" class="node"><title>v7</title>
<ellipse fill="none" stroke="black" cx="784" cy="-11" rx="39.5" ry="11"/>
<text text-anchor="middle" x="784" y="-8.8" font-family="sans-serif" font-size="9.00">Liongroup</text>
</g>
<!-- e1&#45;&gt;v7 -->
<g id="edge37" class="edge"><title>e1&#45;&gt;v7</title>
<path fill="none" stroke="green" d="M449,-116C449,-116 737.04,-102.675 764,-80 781.14,-65.5845 784.018,-37.2967 784.249,-22.1473"/>
</g>
<!-- v15 -->
<g id="v15_Lion" class="node"><title>v15</title>
<ellipse fill="none" stroke="black" cx="968" cy="-11" rx="21.5" ry="11"/>
<text text-anchor="middle" x="968" y="-8.8" font-family="sans-serif" font-size="9.00">Lion</text>
</g>
<!-- e1&#45;&gt;v15 -->
<g id="edge38" class="edge"><title>e1&#45;&gt;v15</title>
<path fill="none" stroke="green" d="M449,-116C449,-116 900.168,-113.463 944,-80 962.21,-66.0976 966.649,-37.3232 967.701,-22.0432"/>
</g>
<!-- v5 -->
<g id="v5_Childgroup" class="node"><title>v5</title>
<ellipse fill="none" stroke="black" cx="283" cy="-11" rx="43" ry="11"/>
<text text-anchor="middle" x="283" y="-8.8" font-family="sans-serif" font-size="9.00">Childgroup</text>
</g>
<!-- e1&#45;&gt;v5 -->
<g id="edge36" class="edge"><title>e1&#45;&gt;v5</title>
<path fill="none" stroke="green" d="M449,-116C449,-116 338.887,-47.0133 298.024,-21.4127"/>
</g>
<!-- e1&#45;&gt;v1 -->
<g id="edge35" class="edge"><title>e1&#45;&gt;v1</title>
<path fill="none" stroke="green" d="M449,-116C449,-116 360.056,-87.7833 321.49,-75.5487"/>
</g>
<!-- v19 -->
<g id="v19_GPS(5)" class="node"><title>v19</title>
<ellipse fill="none" stroke="black" cx="449" cy="-11" rx="29" ry="11"/>
<text text-anchor="middle" x="449" y="-8.8" font-family="sans-serif" font-size="9.00">GPS(5)</text>
</g>
<!-- e1&#45;&gt;v19 -->
<g id="edge39" class="edge"><title>e1&#45;&gt;v19</title>
<path fill="none" stroke="green" d="M449,-116C449,-116 449,-48.6577 449,-22.3521"/>
</g>
<!-- e2 -->
<g id="node6" class="node"><title>e2</title>
</g>
<!-- e2&#45;&gt;v2 -->
<g id="edge40" class="edge"><title>e2&#45;&gt;v2</title>
<path fill="none" stroke="green" d="M260,-116C260,-116 230.755,-91.9773 214.533,-78.6522"/>
</g>
<!-- v6 -->
<g id="v6_Liongroup" class="node"><title>v6</title>
<ellipse fill="none" stroke="black" cx="687" cy="-11" rx="39.5" ry="11"/>
<text text-anchor="middle" x="687" y="-8.8" font-family="sans-serif" font-size="9.00">Liongroup</text>
</g>
<!-- e2&#45;&gt;v6 -->
<g id="edge42" class="edge"><title>e2&#45;&gt;v6</title>
<path fill="none" stroke="green" d="M260,-116C260,-116 520.961,-105.989 590,-80 625.608,-66.5955 660.408,-37.0529 676.972,-21.6971"/>
</g>
<!-- v4 -->
<g id="v4_Childgroup" class="node"><title>v4</title>
<ellipse fill="none" stroke="black" cx="179" cy="-11" rx="43" ry="11"/>
<text text-anchor="middle" x="179" y="-8.8" font-family="sans-serif" font-size="9.00">Childgroup</text>
</g>
<!-- e2&#45;&gt;v4 -->
<g id="edge41" class="edge"><title>e2&#45;&gt;v4</title>
<path fill="none" stroke="green" d="M260,-116C260,-116 251.048,-80.5256 234,-58 222.732,-43.1112 205.786,-29.8773 193.684,-21.4707"/>
</g>
<!-- v17 -->
<g id="v17_GPS(6)" class="node"><title>v17</title>
<ellipse fill="none" stroke="black" cx="601" cy="-11" rx="29" ry="11"/>
<text text-anchor="middle" x="601" y="-8.8" font-family="sans-serif" font-size="9.00">GPS(6)</text>
</g>
<!-- e2&#45;&gt;v17 -->
<g id="edge43" class="edge"><title>e2&#45;&gt;v17</title>
<path fill="none" stroke="green" d="M260,-116C260,-116 509.734,-119.015 566,-80 585.967,-66.1547 595.273,-37.3557 598.956,-22.0571"/>
</g>
<!-- e4 -->
<g id="node7" class="node"><title>e4</title>
</g>
<!-- v8 -->
<g id="v8_Impalaheld" class="node"><title>v8</title>
<ellipse fill="none" stroke="black" cx="885" cy="-11" rx="43" ry="11"/>
<text text-anchor="middle" x="885" y="-8.8" font-family="sans-serif" font-size="9.00">Impalaheld</text>
</g>
<!-- e4&#45;&gt;v8 -->
<g id="edge47" class="edge"><title>e4&#45;&gt;v8</title>
<path fill="none" stroke="green" d="M755,-68C755,-68 828.125,-36.5 864.688,-20.75"/>
</g>
<!-- e4&#45;&gt;v7 -->
<g id="edge46" class="edge"><title>e4&#45;&gt;v7</title>
<path fill="none" stroke="green" d="M755,-68C755,-68 770.474,-38.1193 778.815,-22.0117"/>
</g>
<!-- e4&#45;&gt;v6 -->
<g id="edge45" class="edge"><title>e4&#45;&gt;v6</title>
<path fill="none" stroke="green" d="M755,-68C755,-68 718.327,-37.7988 698.845,-21.7545"/>
</g>
<!-- e7 -->
<g id="node8" class="node"><title>e7</title>
</g>
<!-- v13 -->
<g id="v13_Lion" class="node"><title>v13</title>
<ellipse fill="none" stroke="black" cx="1301" cy="-11" rx="21.5" ry="11"/>
<text text-anchor="middle" x="1301" y="-8.8" font-family="sans-serif" font-size="9.00">Lion</text>
</g>
<!-- e7&#45;&gt;v13 -->
<g id="edge51" class="edge"><title>e7&#45;&gt;v13</title>
<path fill="none" stroke="green" d="M1141,-116C1141,-116 1173.14,-79.4066 1205,-58 1231.08,-40.4798 1264.86,-25.9436 1284.61,-18.1543"/>
</g>
<!-- v11 -->
<g id="v11_GPS(9)" class="node"><title>v11</title>
<ellipse fill="none" stroke="black" cx="1203" cy="-11" rx="29" ry="11"/>
<text text-anchor="middle" x="1203" y="-8.8" font-family="sans-serif" font-size="9.00">GPS(9)</text>
</g>
<!-- e7&#45;&gt;v11 -->
<g id="edge50" class="edge"><title>e7&#45;&gt;v11</title>
<path fill="none" stroke="green" d="M1141,-116C1141,-116 1156.92,-83.0408 1172,-58 1179.75,-45.1293 1189.57,-30.8632 1196.05,-21.6818"/>
</g>
<!-- e7&#45;&gt;v21 -->
<g id="edge52" class="edge"><title>e7&#45;&gt;v21</title>
<path fill="none" stroke="green" d="M1141,-116C1141,-116 1096.85,-90.9273 1073.74,-77.8033"/>
</g>
<!-- v22 -->
<g id="v22_Child" class="node"><title>v22</title>
<ellipse fill="none" stroke="black" cx="1116" cy="-11" rx="25" ry="11"/>
<text text-anchor="middle" x="1116" y="-8.8" font-family="sans-serif" font-size="9.00">Child</text>
</g>
<!-- e7&#45;&gt;v22 -->
<g id="edge53" class="edge"><title>e7&#45;&gt;v22</title>
<path fill="none" stroke="green" d="M1141,-116C1141,-116 1124.65,-48.0023 1118.4,-21.972"/>
</g>
<!-- v2&#45;&gt;v14 -->
<g id="edge12" class="edge"><title>v2&#45;&gt;v14</title>
<path fill="none" stroke="black" d="M189.489,-60.679C169.957,-50.8254 135.125,-33.2521 113.086,-22.1335"/>
<polygon fill="black" stroke="black" points="108.588,-19.864 114.065,-20.1073 110.82,-20.9901 113.052,-22.1162 113.052,-22.1162 113.052,-22.1162 110.82,-20.9901 112.038,-24.125 108.588,-19.864 108.588,-19.864"/>
</g>
<!-- v2&#45;&gt;v5 -->
<g id="edge13" class="edge"><title>v2&#45;&gt;v5</title>
<path fill="none" stroke="black" d="M215.657,-59.737C228.76,-50.4485 250.181,-35.2641 265.341,-24.5176"/>
<polygon fill="black" stroke="black" points="269.439,-21.6128 266.661,-26.34 267.4,-23.0586 265.36,-24.5044 265.36,-24.5044 265.36,-24.5044 267.4,-23.0586 264.059,-22.6688 269.439,-21.6128 269.439,-21.6128"/>
</g>
<!-- v2&#45;&gt;v4 -->
<g id="edge14" class="edge"><title>v2&#45;&gt;v4</title>
<path fill="none" stroke="black" d="M199.531,-57.9883C195.668,-49.3368 190.032,-36.7119 185.642,-26.8777"/>
<polygon fill="black" stroke="black" points="183.6,-22.3039 187.693,-25.9523 184.619,-24.5867 185.638,-26.8696 185.638,-26.8696 185.638,-26.8696 184.619,-24.5867 183.584,-27.7868 183.6,-22.3039 183.6,-22.3039"/>
</g>
<!-- v24 -->
<g id="v24_GPS(0)" class="node"><title>v24</title>
<ellipse fill="none" stroke="black" cx="525" cy="-11" rx="29" ry="11"/>
<text text-anchor="middle" x="525" y="-8.8" font-family="sans-serif" font-size="9.00">GPS(0)</text>
</g>
<!-- v8&#45;&gt;v24 -->
<g id="edge48" class="edge"><title>v8&#45;&gt;v24</title>
<path fill="none" stroke="green" d="M868.35,-21.2431C856.26,-28.055 839.24,-36.3897 823,-40 768.551,-52.1046 625.66,-55.2225 572,-40 559.086,-36.3366 546.241,-28.007 537.251,-21.2104"/>
</g>
<!-- v12&#45;&gt;v13 -->
<g id="edge15" class="edge"><title>v12&#45;&gt;v13</title>
<path fill="none" stroke="black" d="M1322.35,-57.9883C1318.28,-49.2286 1312.33,-36.3956 1307.74,-26.5103"/>
<polygon fill="black" stroke="black" points="1305.61,-21.925 1309.75,-25.5125 1306.66,-24.1925 1307.71,-26.4601 1307.71,-26.4601 1307.71,-26.4601 1306.66,-24.1925 1305.67,-27.4076 1305.61,-21.925 1305.61,-21.925"/>
</g>
<!-- v9&#45;&gt;v24 -->
<g id="edge18" class="edge"><title>v9&#45;&gt;v24</title>
<path fill="none" stroke="black" d="M525,-57.9883C525,-49.4941 525,-37.1697 525,-27.4169"/>
<polygon fill="black" stroke="black" points="525,-22.3039 527.25,-27.3038 525,-24.8039 525,-27.3039 525,-27.3039 525,-27.3039 525,-24.8039 522.75,-27.3039 525,-22.3039 525,-22.3039"/>
</g>
<!-- v9&#45;&gt;v23 -->
<g id="edge17" class="edge"><title>v9&#45;&gt;v23</title>
<path fill="none" stroke="black" d="M504.501,-60.4476C476.77,-50.2312 427.365,-32.0292 397.646,-21.0801"/>
<polygon fill="black" stroke="black" points="392.694,-19.2556 398.163,-18.8729 395.04,-20.1198 397.385,-20.9841 397.385,-20.9841 397.385,-20.9841 395.04,-20.1198 396.607,-23.0954 392.694,-19.2556 392.694,-19.2556"/>
</g>
<!-- v9&#45;&gt;v17 -->
<g id="edge19" class="edge"><title>v9&#45;&gt;v17</title>
<path fill="none" stroke="black" d="M537.55,-58.7527C550.388,-49.2933 570.398,-34.549 584.508,-24.1517"/>
<polygon fill="black" stroke="black" points="588.684,-21.0752 585.993,-25.8526 586.671,-22.5582 584.658,-24.0412 584.658,-24.0412 584.658,-24.0412 586.671,-22.5582 583.324,-22.2298 588.684,-21.0752 588.684,-21.0752"/>
</g>
<!-- v9&#45;&gt;v19 -->
<g id="edge16" class="edge"><title>v9&#45;&gt;v19</title>
<path fill="none" stroke="black" d="M512.45,-58.7527C499.612,-49.2933 479.602,-34.549 465.492,-24.1517"/>
<polygon fill="black" stroke="black" points="461.316,-21.0752 466.676,-22.2298 463.329,-22.5582 465.342,-24.0412 465.342,-24.0412 465.342,-24.0412 463.329,-22.5582 464.007,-25.8526 461.316,-21.0752 461.316,-21.0752"/>
</g>
<!-- v0&#45;&gt;v14 -->
<g id="edge20" class="edge"><title>v0&#45;&gt;v14</title>
<path fill="none" stroke="black" d="M134.744,-58.7527C126.614,-49.6476 114.113,-35.6462 104.909,-25.3379"/>
<polygon fill="black" stroke="black" points="101.436,-21.4482 106.444,-23.6793 103.101,-23.313 104.766,-25.1779 104.766,-25.1779 104.766,-25.1779 103.101,-23.313 103.088,-26.6764 101.436,-21.4482 101.436,-21.4482"/>
</g>
<!-- v0&#45;&gt;v5 -->
<g id="edge21" class="edge"><title>v0&#45;&gt;v5</title>
<path fill="none" stroke="black" d="M159.06,-61.5761C182.823,-52.0707 227.63,-34.148 256.36,-22.6559"/>
<polygon fill="black" stroke="black" points="261.178,-20.7289 257.371,-24.675 258.857,-21.6574 256.535,-22.5859 256.535,-22.5859 256.535,-22.5859 258.857,-21.6574 255.7,-20.4968 261.178,-20.7289 261.178,-20.7289"/>
</g>
<!-- v0&#45;&gt;v4 -->
<g id="edge22" class="edge"><title>v0&#45;&gt;v4</title>
<path fill="none" stroke="black" d="M149.271,-58.2455C154.931,-49.4409 163.332,-36.373 169.761,-26.3724"/>
<polygon fill="black" stroke="black" points="172.559,-22.0198 171.748,-27.4424 171.207,-24.1227 169.855,-26.2257 169.855,-26.2257 169.855,-26.2257 171.207,-24.1227 167.962,-25.0089 172.559,-22.0198 172.559,-22.0198"/>
</g>
<!-- v10&#45;&gt;v12 -->
<g id="edge49" class="edge"><title>v10&#45;&gt;v12</title>
<path fill="none" stroke="green" d="M1279.5,-69C1285.56,-69 1291.62,-69 1297.68,-69"/>
</g>
<!-- v10&#45;&gt;v11 -->
<g id="edge23" class="edge"><title>v10&#45;&gt;v11</title>
<path fill="none" stroke="black" d="M1239.34,-58.2455C1232.27,-49.2519 1221.71,-35.8101 1213.79,-25.7327"/>
<polygon fill="black" stroke="black" points="1210.58,-21.6427 1215.43,-24.1842 1212.12,-23.6085 1213.67,-25.5743 1213.67,-25.5743 1213.67,-25.5743 1212.12,-23.6085 1211.9,-26.9644 1210.58,-21.6427 1210.58,-21.6427"/>
</g>
<!-- v21&#45;&gt;v22 -->
<g id="edge24" class="edge"><title>v21&#45;&gt;v22</title>
<path fill="none" stroke="black" d="M1069,-59.0026C1078.14,-49.8606 1092.4,-35.6014 1102.82,-25.1846"/>
<polygon fill="black" stroke="black" points="1106.46,-21.5373 1104.52,-26.6639 1104.69,-23.3051 1102.93,-25.0729 1102.93,-25.0729 1102.93,-25.0729 1104.69,-23.3051 1101.34,-23.4819 1106.46,-21.5373 1106.46,-21.5373"/>
</g>
<!-- v16&#45;&gt;v18 -->
<g id="edge54" class="edge"><title>v16&#45;&gt;v18</title>
<path fill="none" stroke="green" d="M1053.43,-21.2214C1063.25,-28.0232 1077.21,-36.3546 1091,-40 1140.84,-53.18 1272.71,-51.3461 1323,-40 1339.47,-36.2839 1356.71,-27.5726 1368.65,-20.6616"/>
</g>
<!-- v3&#45;&gt;v8 -->
<g id="edge26" class="edge"><title>v3&#45;&gt;v8</title>
<path fill="none" stroke="black" d="M885,-57.9883C885,-49.4941 885,-37.1697 885,-27.4169"/>
<polygon fill="black" stroke="black" points="885,-22.3039 887.25,-27.3038 885,-24.8039 885,-27.3039 885,-27.3039 885,-27.3039 885,-24.8039 882.75,-27.3039 885,-22.3039 885,-22.3039"/>
</g>
<!-- v3&#45;&gt;v7 -->
<g id="edge28" class="edge"><title>v3&#45;&gt;v7</title>
<path fill="none" stroke="black" d="M867.867,-58.5004C850.538,-48.8921 823.72,-34.0231 805.094,-23.6956"/>
<polygon fill="black" stroke="black" points="800.546,-21.1738 806.009,-21.6306 802.732,-22.3861 804.918,-23.5984 804.918,-23.5984 804.918,-23.5984 802.732,-22.3861 803.827,-25.5662 800.546,-21.1738 800.546,-21.1738"/>
</g>
<!-- v3&#45;&gt;v9 -->
<g id="edge44" class="edge"><title>v3&#45;&gt;v9</title>
<path fill="none" stroke="green" d="M860.195,-78.6913C841.077,-85.6179 813.802,-94.3356 789,-98 701.649,-110.906 597.256,-88.2756 550.196,-76.0529"/>
</g>
<!-- v3&#45;&gt;v15 -->
<g id="edge25" class="edge"><title>v3&#45;&gt;v15</title>
<path fill="none" stroke="black" d="M899.457,-58.2455C913.937,-48.4763 936.195,-33.4586 951.392,-23.2057"/>
<polygon fill="black" stroke="black" points="955.864,-20.1878 952.978,-24.8496 953.792,-21.5861 951.72,-22.9844 951.72,-22.9844 951.72,-22.9844 953.792,-21.5861 950.461,-21.1192 955.864,-20.1878 955.864,-20.1878"/>
</g>
<!-- v3&#45;&gt;v6 -->
<g id="edge27" class="edge"><title>v3&#45;&gt;v6</title>
<path fill="none" stroke="black" d="M856.209,-59.8571C819.359,-49.4348 755.77,-31.4501 717.922,-20.7456"/>
<polygon fill="black" stroke="black" points="712.984,-19.3491 718.408,-18.5449 715.39,-20.0295 717.796,-20.71 717.796,-20.71 717.796,-20.71 715.39,-20.0295 717.183,-22.875 712.984,-19.3491 712.984,-19.3491"/>
</g>
<!-- v1&#45;&gt;v14 -->
<g id="edge29" class="edge"><title>v1&#45;&gt;v14</title>
<path fill="none" stroke="black" d="M285.345,-63.3594C253.017,-55.271 184.525,-37.9302 127,-22 123.965,-21.1595 120.784,-20.2553 117.637,-19.3464"/>
<polygon fill="black" stroke="black" points="112.746,-17.923 118.176,-17.1599 115.147,-18.6216 117.547,-19.3202 117.547,-19.3202 117.547,-19.3202 115.147,-18.6216 116.918,-21.4806 112.746,-17.923 112.746,-17.923"/>
</g>
<!-- v1&#45;&gt;v5 -->
<g id="edge30" class="edge"><title>v1&#45;&gt;v5</title>
<path fill="none" stroke="black" d="M300.246,-57.9883C297.031,-49.4154 292.353,-36.9411 288.68,-27.1466"/>
<polygon fill="black" stroke="black" points="286.864,-22.3039 290.726,-26.1955 287.742,-24.6447 288.62,-26.9855 288.62,-26.9855 288.62,-26.9855 287.742,-24.6447 286.513,-27.7756 286.864,-22.3039 286.864,-22.3039"/>
</g>
<!-- v1&#45;&gt;v4 -->
<g id="edge31" class="edge"><title>v1&#45;&gt;v4</title>
<path fill="none" stroke="black" d="M288.673,-61.1333C267.526,-51.6595 229.154,-34.4688 203.87,-23.1418"/>
<polygon fill="black" stroke="black" points="198.997,-20.9586 204.48,-20.9495 201.278,-21.9807 203.56,-23.0028 203.56,-23.0028 203.56,-23.0028 201.278,-21.9807 202.64,-25.0562 198.997,-20.9586 198.997,-20.9586"/>
</g>
</g>
</svg>
