<?xml version="1.0" encoding="UTF-8" standalone="no"?>
<?xml-stylesheet href="style.css" type="text/css"?>
<!DOCTYPE svg PUBLIC "-//W3C//DTD SVG 1.1//EN"
 "http://www.w3.org/Graphics/SVG/1.1/DTD/svg11.dtd">
<!-- Generated by graphviz version 2.38.0 (20140413.2041)
 -->
<!-- Title: 374.svg Pages: 1 -->
<svg width="1277pt" height="179pt"
 viewBox="0.00 0.00 1276.50 179.00" xmlns="http://www.w3.org/2000/svg" xmlns:xlink="http://www.w3.org/1999/xlink">
<g id="graph0" class="graph" transform="scale(1 1) rotate(0) translate(4 175)">
<title>374.svg</title>
<polygon fill="white" stroke="none" points="-4,4 -4,-175 1272.5,-175 1272.5,4 -4,4"/>
<!-- r0 -->
<g id="node1" class="node"><title>r0</title>
<polygon fill="none" stroke="black" stroke-dasharray="5,2" points="188.5,-171 165.5,-171 165.5,-153 188.5,-153 188.5,-171"/>
<text text-anchor="middle" x="177" y="-159.8" font-family="serif" font-size="9.00">0</text>
</g>
<!-- v20 -->
<g id="v20_Field" class="node"><title>v20</title>
<ellipse fill="none" stroke="black" cx="25" cy="-11" rx="25" ry="11"/>
<text text-anchor="middle" x="25" y="-8.8" font-family="sans-serif" font-size="9.00">Field</text>
</g>
<!-- r0&#45;&gt;v20 -->
<g id="edge5" class="edge"><title>r0&#45;&gt;v20</title>
<path fill="none" stroke="black" d="M165.304,-156.236C149.288,-149.311 120.219,-135.272 100,-117 69.8685,-89.7706 44.801,-48.4502 32.736,-26.6515"/>
<polygon fill="black" stroke="black" points="30.2251,-22.0551 34.5968,-25.3644 31.4236,-24.2491 32.6222,-26.4431 32.6222,-26.4431 32.6222,-26.4431 31.4236,-24.2491 30.6476,-27.5217 30.2251,-22.0551 30.2251,-22.0551"/>
</g>
<!-- v8 -->
<g id="v8_Aura" class="node"><title>v8</title>
<ellipse fill="none" stroke="black" cx="113" cy="-69" rx="21.5" ry="11"/>
<text text-anchor="middle" x="113" y="-66.8" font-family="sans-serif" font-size="9.00">Aura</text>
</g>
<!-- r0&#45;&gt;v8 -->
<g id="edge8" class="edge"><title>r0&#45;&gt;v8</title>
<path fill="none" stroke="black" d="M171.32,-152.924C160.434,-137.446 136.509,-103.427 122.928,-84.1163"/>
<polygon fill="black" stroke="black" points="119.712,-79.5439 124.429,-82.3393 121.15,-81.5888 122.589,-83.6337 122.589,-83.6337 122.589,-83.6337 121.15,-81.5888 120.748,-84.9281 119.712,-79.5439 119.712,-79.5439"/>
</g>
<!-- v7 -->
<g id="v7_Aura" class="node"><title>v7</title>
<ellipse fill="none" stroke="black" cx="274" cy="-69" rx="21.5" ry="11"/>
<text text-anchor="middle" x="274" y="-66.8" font-family="sans-serif" font-size="9.00">Aura</text>
</g>
<!-- r0&#45;&gt;v7 -->
<g id="edge6" class="edge"><title>r0&#45;&gt;v7</title>
<path fill="none" stroke="black" d="M188.668,-152.826C200.368,-144.406 218.657,-130.625 233,-117 244.128,-106.429 255.503,-93.1545 263.44,-83.4115"/>
<polygon fill="black" stroke="black" points="266.62,-79.4703 265.231,-84.7745 265.05,-81.4159 263.48,-83.3616 263.48,-83.3616 263.48,-83.3616 265.05,-81.4159 261.729,-81.9486 266.62,-79.4703 266.62,-79.4703"/>
</g>
<!-- v6 -->
<g id="v6_Aura" class="node"><title>v6</title>
<ellipse fill="none" stroke="black" cx="174" cy="-69" rx="21.5" ry="11"/>
<text text-anchor="middle" x="174" y="-66.8" font-family="sans-serif" font-size="9.00">Aura</text>
</g>
<!-- r0&#45;&gt;v6 -->
<g id="edge7" class="edge"><title>r0&#45;&gt;v6</title>
<path fill="none" stroke="black" d="M176.734,-152.924C176.233,-137.736 175.144,-104.696 174.502,-85.2178"/>
<polygon fill="black" stroke="black" points="174.333,-80.1095 176.747,-85.0327 174.416,-82.6082 174.498,-85.1068 174.498,-85.1068 174.498,-85.1068 174.416,-82.6082 172.249,-85.181 174.333,-80.1095 174.333,-80.1095"/>
</g>
<!-- v21 -->
<g id="v21_Aura" class="node"><title>v21</title>
<ellipse fill="none" stroke="black" cx="912" cy="-69" rx="21.5" ry="11"/>
<text text-anchor="middle" x="912" y="-66.8" font-family="sans-serif" font-size="9.00">Aura</text>
</g>
<!-- r0&#45;&gt;v21 -->
<g id="edge4" class="edge"><title>r0&#45;&gt;v21</title>
<path fill="none" stroke="black" d="M188.919,-160.108C256.231,-154.964 595.519,-127.652 869,-80 875.253,-78.9105 881.96,-77.4794 888.173,-76.0418"/>
<polygon fill="black" stroke="black" points="893.255,-74.84 888.907,-78.1803 890.822,-75.4154 888.389,-75.9907 888.389,-75.9907 888.389,-75.9907 890.822,-75.4154 887.872,-73.8011 893.255,-74.84 893.255,-74.84"/>
</g>
<!-- r1 -->
<g id="node2" class="node"><title>r1</title>
<polygon fill="none" stroke="black" stroke-dasharray="5,2" points="681.5,-171 658.5,-171 658.5,-153 681.5,-153 681.5,-171"/>
<text text-anchor="middle" x="670" y="-159.8" font-family="serif" font-size="9.00">1</text>
</g>
<!-- v3 -->
<g id="v3_Locale" class="node"><title>v3</title>
<ellipse fill="none" stroke="black" cx="457" cy="-69" rx="29" ry="11"/>
<text text-anchor="middle" x="457" y="-66.8" font-family="sans-serif" font-size="9.00">Locale</text>
</g>
<!-- r1&#45;&gt;v3 -->
<g id="edge9" class="edge"><title>r1&#45;&gt;v3</title>
<path fill="none" stroke="black" d="M658.245,-155.978C624.165,-141.418 524.883,-99.0018 479.775,-79.7304"/>
<polygon fill="black" stroke="black" points="475.066,-77.7184 480.548,-77.6138 477.365,-78.7007 479.664,-79.6829 479.664,-79.6829 479.664,-79.6829 477.365,-78.7007 478.78,-81.752 475.066,-77.7184 475.066,-77.7184"/>
</g>
<!-- v4 -->
<g id="v4_Locale" class="node"><title>v4</title>
<ellipse fill="none" stroke="black" cx="1095" cy="-69" rx="29" ry="11"/>
<text text-anchor="middle" x="1095" y="-66.8" font-family="sans-serif" font-size="9.00">Locale</text>
</g>
<!-- r1&#45;&gt;v4 -->
<g id="edge10" class="edge"><title>r1&#45;&gt;v4</title>
<path fill="none" stroke="black" d="M681.579,-160.591C723.742,-158.855 872.738,-150.562 990,-117 1021.06,-108.11 1054.79,-91.6884 1075.42,-80.8032"/>
<polygon fill="black" stroke="black" points="1079.87,-78.4341 1076.51,-82.7706 1077.66,-79.6094 1075.45,-80.7847 1075.45,-80.7847 1075.45,-80.7847 1077.66,-79.6094 1074.4,-78.7988 1079.87,-78.4341 1079.87,-78.4341"/>
</g>
<!-- v18 -->
<g id="v18_Locale" class="node"><title>v18</title>
<ellipse fill="none" stroke="black" cx="670" cy="-11" rx="29" ry="11"/>
<text text-anchor="middle" x="670" y="-8.8" font-family="sans-serif" font-size="9.00">Locale</text>
</g>
<!-- r1&#45;&gt;v18 -->
<g id="edge11" class="edge"><title>r1&#45;&gt;v18</title>
<path fill="none" stroke="black" d="M670,-152.989C670,-129.218 670,-58.7895 670,-27.3986"/>
<polygon fill="black" stroke="black" points="670,-22.3591 672.25,-27.359 670,-24.8591 670,-27.3591 670,-27.3591 670,-27.3591 670,-24.8591 667.75,-27.3591 670,-22.3591 670,-22.3591"/>
</g>
<!-- r2 -->
<g id="node3" class="node"><title>r2</title>
<polygon fill="none" stroke="black" stroke-dasharray="5,2" points="1186.5,-171 1163.5,-171 1163.5,-153 1186.5,-153 1186.5,-171"/>
<text text-anchor="middle" x="1175" y="-159.8" font-family="serif" font-size="9.00">2</text>
</g>
<!-- v0 -->
<g id="v0_Area(0)" class="node"><title>v0</title>
<ellipse fill="none" stroke="black" cx="801" cy="-69" rx="32.5" ry="11"/>
<text text-anchor="middle" x="801" y="-66.8" font-family="sans-serif" font-size="9.00">Area(0)</text>
</g>
<!-- r2&#45;&gt;v0 -->
<g id="edge1" class="edge"><title>r2&#45;&gt;v0</title>
<path fill="none" stroke="black" d="M1163.44,-158.749C1132.26,-152.623 1043.83,-134.906 971,-117 920.759,-104.647 862.783,-88.1269 829.168,-78.321"/>
<polygon fill="black" stroke="black" points="823.988,-76.8065 829.418,-76.0499 826.387,-77.508 828.787,-78.2095 828.787,-78.2095 828.787,-78.2095 826.387,-77.508 828.155,-80.3691 823.988,-76.8065 823.988,-76.8065"/>
</g>
<!-- v16 -->
<g id="v16_Area(1)" class="node"><title>v16</title>
<ellipse fill="none" stroke="black" cx="1236" cy="-11" rx="32.5" ry="11"/>
<text text-anchor="middle" x="1236" y="-8.8" font-family="sans-serif" font-size="9.00">Area(1)</text>
</g>
<!-- r2&#45;&gt;v16 -->
<g id="edge3" class="edge"><title>r2&#45;&gt;v16</title>
<path fill="none" stroke="black" d="M1180,-152.755C1188.55,-138.403 1206.08,-107.706 1217,-80 1223.9,-62.4823 1229.36,-41.5041 1232.63,-27.5254"/>
<polygon fill="black" stroke="black" points="1233.81,-22.3532 1234.89,-27.7287 1233.25,-24.7904 1232.69,-27.2276 1232.69,-27.2276 1232.69,-27.2276 1233.25,-24.7904 1230.5,-26.7265 1233.81,-22.3532 1233.81,-22.3532"/>
</g>
<!-- v1 -->
<g id="v1_Area(2)" class="node"><title>v1</title>
<ellipse fill="none" stroke="black" cx="1175" cy="-69" rx="32.5" ry="11"/>
<text text-anchor="middle" x="1175" y="-66.8" font-family="sans-serif" font-size="9.00">Area(2)</text>
</g>
<!-- r2&#45;&gt;v1 -->
<g id="edge2" class="edge"><title>r2&#45;&gt;v1</title>
<path fill="none" stroke="black" d="M1175,-152.924C1175,-137.736 1175,-104.696 1175,-85.2178"/>
<polygon fill="black" stroke="black" points="1175,-80.1095 1177.25,-85.1095 1175,-82.6095 1175,-85.1095 1175,-85.1095 1175,-85.1095 1175,-82.6095 1172.75,-85.1096 1175,-80.1095 1175,-80.1095"/>
</g>
<!-- e2 -->
<g id="node4" class="node"><title>e2</title>
</g>
<!-- v2 -->
<g id="v2_GPS(9)" class="node"><title>v2</title>
<ellipse fill="none" stroke="black" cx="1149" cy="-11" rx="29" ry="11"/>
<text text-anchor="middle" x="1149" y="-8.8" font-family="sans-serif" font-size="9.00">GPS(9)</text>
</g>
<!-- e2&#45;&gt;v2 -->
<g id="edge34" class="edge"><title>e2&#45;&gt;v2</title>
<path fill="none" stroke="green" d="M981,-116C981,-116 1020.95,-80.4895 1057,-58 1081.7,-42.5937 1112.24,-28.1575 1131.17,-19.7019"/>
</g>
<!-- e2&#45;&gt;v21 -->
<g id="edge36" class="edge"><title>e2&#45;&gt;v21</title>
<path fill="none" stroke="green" d="M981,-116C981,-116 944.183,-91.4551 924.336,-78.2239"/>
</g>
<!-- v5 -->
<g id="v5_Lion" class="node"><title>v5</title>
<ellipse fill="none" stroke="black" cx="1065" cy="-11" rx="21.5" ry="11"/>
<text text-anchor="middle" x="1065" y="-8.8" font-family="sans-serif" font-size="9.00">Lion</text>
</g>
<!-- e2&#45;&gt;v5 -->
<g id="edge35" class="edge"><title>e2&#45;&gt;v5</title>
<path fill="none" stroke="green" d="M981,-116C981,-116 1003.75,-82.8917 1024,-58 1034.67,-44.8886 1047.78,-30.4393 1056.26,-21.2979"/>
</g>
<!-- v22 -->
<g id="v22_Child" class="node"><title>v22</title>
<ellipse fill="none" stroke="black" cx="970" cy="-11" rx="25" ry="11"/>
<text text-anchor="middle" x="970" y="-8.8" font-family="sans-serif" font-size="9.00">Child</text>
</g>
<!-- e2&#45;&gt;v22 -->
<g id="edge37" class="edge"><title>e2&#45;&gt;v22</title>
<path fill="none" stroke="green" d="M981,-116C981,-116 973.877,-48.6577 971.095,-22.3521"/>
</g>
<!-- e3 -->
<g id="node5" class="node"><title>e3</title>
</g>
<!-- e3&#45;&gt;v6 -->
<g id="edge38" class="edge"><title>e3&#45;&gt;v6</title>
<path fill="none" stroke="green" d="M224,-116C224,-116 198.17,-92.2363 183.641,-78.8693"/>
</g>
<!-- v14 -->
<g id="v14_Child" class="node"><title>v14</title>
<ellipse fill="none" stroke="black" cx="188" cy="-11" rx="25" ry="11"/>
<text text-anchor="middle" x="188" y="-8.8" font-family="sans-serif" font-size="9.00">Child</text>
</g>
<!-- e3&#45;&gt;v14 -->
<g id="edge39" class="edge"><title>e3&#45;&gt;v14</title>
<path fill="none" stroke="green" d="M224,-116C224,-116 212.923,-83.7659 204,-58 199.739,-45.6957 194.814,-31.5486 191.567,-22.2285"/>
</g>
<!-- v23 -->
<g id="v23_GPS(1)" class="node"><title>v23</title>
<ellipse fill="none" stroke="black" cx="746" cy="-11" rx="29" ry="11"/>
<text text-anchor="middle" x="746" y="-8.8" font-family="sans-serif" font-size="9.00">GPS(1)</text>
</g>
<!-- e3&#45;&gt;v23 -->
<g id="edge40" class="edge"><title>e3&#45;&gt;v23</title>
<path fill="none" stroke="green" d="M224,-116C224,-116 396.101,-108.687 530,-80 604.385,-64.0636 689.727,-33.3686 726.964,-19.3306"/>
</g>
<!-- e4 -->
<g id="node6" class="node"><title>e4</title>
</g>
<!-- e4&#45;&gt;v7 -->
<g id="edge41" class="edge"><title>e4&#45;&gt;v7</title>
<path fill="none" stroke="green" d="M381,-116C381,-116 319.552,-89.5831 289.788,-76.7875"/>
</g>
<!-- v12 -->
<g id="v12_Lion" class="node"><title>v12</title>
<ellipse fill="none" stroke="black" cx="326" cy="-11" rx="21.5" ry="11"/>
<text text-anchor="middle" x="326" y="-8.8" font-family="sans-serif" font-size="9.00">Lion</text>
</g>
<!-- e4&#45;&gt;v12 -->
<g id="edge44" class="edge"><title>e4&#45;&gt;v12</title>
<path fill="none" stroke="green" d="M381,-116C381,-116 345.04,-48.0023 331.274,-21.972"/>
</g>
<!-- v9 -->
<g id="v9_Child" class="node"><title>v9</title>
<ellipse fill="none" stroke="black" cx="259" cy="-11" rx="25" ry="11"/>
<text text-anchor="middle" x="259" y="-8.8" font-family="sans-serif" font-size="9.00">Child</text>
</g>
<!-- e4&#45;&gt;v9 -->
<g id="edge42" class="edge"><title>e4&#45;&gt;v9</title>
<path fill="none" stroke="green" d="M381,-116C381,-116 299.685,-46.682 269.827,-21.2293"/>
</g>
<!-- v11 -->
<g id="v11_Lion" class="node"><title>v11</title>
<ellipse fill="none" stroke="black" cx="387" cy="-11" rx="21.5" ry="11"/>
<text text-anchor="middle" x="387" y="-8.8" font-family="sans-serif" font-size="9.00">Lion</text>
</g>
<!-- e4&#45;&gt;v11 -->
<g id="edge43" class="edge"><title>e4&#45;&gt;v11</title>
<path fill="none" stroke="green" d="M381,-116C381,-116 384.885,-48.6577 386.403,-22.3521"/>
</g>
<!-- v15 -->
<g id="v15_Lion" class="node"><title>v15</title>
<ellipse fill="none" stroke="black" cx="525" cy="-11" rx="21.5" ry="11"/>
<text text-anchor="middle" x="525" y="-8.8" font-family="sans-serif" font-size="9.00">Lion</text>
</g>
<!-- e4&#45;&gt;v15 -->
<g id="edge45" class="edge"><title>e4&#45;&gt;v15</title>
<path fill="none" stroke="green" d="M381,-116C381,-116 455.428,-115.456 495,-80 512.298,-64.501 520.102,-37.1793 523.212,-22.323"/>
</g>
<!-- v19 -->
<g id="v19_GPS(5)" class="node"><title>v19</title>
<ellipse fill="none" stroke="black" cx="898" cy="-11" rx="29" ry="11"/>
<text text-anchor="middle" x="898" y="-8.8" font-family="sans-serif" font-size="9.00">GPS(5)</text>
</g>
<!-- e4&#45;&gt;v19 -->
<g id="edge46" class="edge"><title>e4&#45;&gt;v19</title>
<path fill="none" stroke="green" d="M381,-116C381,-116 796.426,-103.721 842,-80 866.961,-67.0079 884.97,-37.563 893.126,-22.028"/>
</g>
<!-- e5 -->
<g id="node7" class="node"><title>e5</title>
</g>
<!-- e5&#45;&gt;v8 -->
<g id="edge47" class="edge"><title>e5&#45;&gt;v8</title>
<path fill="none" stroke="green" d="M110,-116C110,-116 111.45,-93.7609 112.334,-80.2089"/>
</g>
<!-- v10 -->
<g id="v10_Child" class="node"><title>v10</title>
<ellipse fill="none" stroke="black" cx="114" cy="-11" rx="25" ry="11"/>
<text text-anchor="middle" x="114" y="-8.8" font-family="sans-serif" font-size="9.00">Child</text>
</g>
<!-- e5&#45;&gt;v10 -->
<g id="edge48" class="edge"><title>e5&#45;&gt;v10</title>
<path fill="none" stroke="green" d="M110,-116C110,-116 88.5783,-99.1726 82,-80 78.8268,-70.7515 79.0741,-67.3297 82,-58 86.4832,-43.7048 97.1526,-29.9621 104.943,-21.2804"/>
</g>
<!-- v17 -->
<g id="v17_GPS(6)" class="node"><title>v17</title>
<ellipse fill="none" stroke="black" cx="594" cy="-11" rx="29" ry="11"/>
<text text-anchor="middle" x="594" y="-8.8" font-family="sans-serif" font-size="9.00">GPS(6)</text>
</g>
<!-- e5&#45;&gt;v17 -->
<g id="edge49" class="edge"><title>e5&#45;&gt;v17</title>
<path fill="none" stroke="green" d="M110,-116C110,-116 414.209,-109.267 495,-80 531.465,-66.7906 567.203,-36.8794 584.021,-21.5093"/>
</g>
<!-- v8&#45;&gt;v9 -->
<g id="edge14" class="edge"><title>v8&#45;&gt;v9</title>
<path fill="none" stroke="black" d="M129.464,-61.6849C155.548,-51.6801 206.445,-32.1579 236.082,-20.7906"/>
<polygon fill="black" stroke="black" points="241.003,-18.9031 237.14,-22.7945 238.668,-19.7984 236.334,-20.6938 236.334,-20.6938 236.334,-20.6938 238.668,-19.7984 235.528,-18.593 241.003,-18.9031 241.003,-18.9031"/>
</g>
<!-- v8&#45;&gt;v10 -->
<g id="edge13" class="edge"><title>v8&#45;&gt;v10</title>
<path fill="none" stroke="black" d="M113.179,-57.9883C113.33,-49.4941 113.551,-37.1697 113.725,-27.4169"/>
<polygon fill="black" stroke="black" points="113.816,-22.3039 115.976,-27.3433 113.771,-24.8035 113.727,-27.3031 113.727,-27.3031 113.727,-27.3031 113.771,-24.8035 111.477,-27.2629 113.816,-22.3039 113.816,-22.3039"/>
</g>
<!-- v8&#45;&gt;v14 -->
<g id="edge12" class="edge"><title>v8&#45;&gt;v14</title>
<path fill="none" stroke="black" d="M124.391,-59.4948C137.017,-50.067 157.484,-34.7854 171.781,-24.1101"/>
<polygon fill="black" stroke="black" points="176.005,-20.9566 173.344,-25.751 174.001,-22.4524 171.998,-23.9481 171.998,-23.9481 171.998,-23.9481 174.001,-22.4524 170.652,-22.1452 176.005,-20.9566 176.005,-20.9566"/>
</g>
<!-- v7&#45;&gt;v9 -->
<g id="edge17" class="edge"><title>v7&#45;&gt;v9</title>
<path fill="none" stroke="black" d="M271.318,-57.9883C269.022,-49.4154 265.681,-36.9411 263.057,-27.1466"/>
<polygon fill="black" stroke="black" points="261.76,-22.3039 265.227,-26.5514 262.407,-24.7187 263.054,-27.1336 263.054,-27.1336 263.054,-27.1336 262.407,-24.7187 260.88,-27.7158 261.76,-22.3039 261.76,-22.3039"/>
</g>
<!-- v7&#45;&gt;v10 -->
<g id="edge16" class="edge"><title>v7&#45;&gt;v10</title>
<path fill="none" stroke="black" d="M257.18,-62.1129C228.544,-52.0904 170.257,-31.6898 137.572,-20.2501"/>
<polygon fill="black" stroke="black" points="132.554,-18.494 138.017,-18.0222 134.914,-19.3199 137.274,-20.1459 137.274,-20.1459 137.274,-20.1459 134.914,-19.3199 136.53,-22.2695 132.554,-18.494 132.554,-18.494"/>
</g>
<!-- v7&#45;&gt;v14 -->
<g id="edge15" class="edge"><title>v7&#45;&gt;v14</title>
<path fill="none" stroke="black" d="M261.678,-59.9766C246.989,-50.4117 222.335,-34.3574 205.631,-23.4804"/>
<polygon fill="black" stroke="black" points="201.145,-20.5595 206.563,-21.4024 203.24,-21.9237 205.335,-23.2879 205.335,-23.2879 205.335,-23.2879 203.24,-21.9237 204.107,-25.1734 201.145,-20.5595 201.145,-20.5595"/>
</g>
<!-- v13 -->
<g id="v13_Impala" class="node"><title>v13</title>
<ellipse fill="none" stroke="black" cx="456" cy="-11" rx="29" ry="11"/>
<text text-anchor="middle" x="456" y="-8.8" font-family="sans-serif" font-size="9.00">Impala</text>
</g>
<!-- v24 -->
<g id="v24_GPS(0)" class="node"><title>v24</title>
<ellipse fill="none" stroke="black" cx="822" cy="-11" rx="29" ry="11"/>
<text text-anchor="middle" x="822" y="-8.8" font-family="sans-serif" font-size="9.00">GPS(0)</text>
</g>
<!-- v13&#45;&gt;v24 -->
<g id="edge50" class="edge"><title>v13&#45;&gt;v24</title>
<path fill="none" stroke="green" d="M468.251,-21.2104C477.241,-28.007 490.086,-36.3366 503,-40 561.15,-56.4961 716.85,-56.4961 775,-40 787.914,-36.3366 800.759,-28.007 809.749,-21.2104"/>
</g>
<!-- v0&#45;&gt;v24 -->
<g id="edge19" class="edge"><title>v0&#45;&gt;v24</title>
<path fill="none" stroke="black" d="M804.754,-57.9883C808.009,-49.3083 812.764,-36.6286 816.457,-26.7806"/>
<polygon fill="black" stroke="black" points="818.278,-21.925 818.629,-27.3967 817.4,-24.2658 816.522,-26.6067 816.522,-26.6067 816.522,-26.6067 817.4,-24.2658 814.416,-25.8166 818.278,-21.925 818.278,-21.925"/>
</g>
<!-- v0&#45;&gt;v3 -->
<g id="edge32" class="edge"><title>v0&#45;&gt;v3</title>
<path fill="none" stroke="green" d="M768.416,-69C674.353,-69 580.29,-69 486.227,-69"/>
</g>
<!-- v0&#45;&gt;v23 -->
<g id="edge20" class="edge"><title>v0&#45;&gt;v23</title>
<path fill="none" stroke="black" d="M791.42,-58.2455C782.508,-49.1716 769.149,-35.5697 759.223,-25.4636"/>
<polygon fill="black" stroke="black" points="755.47,-21.6427 760.579,-23.6333 757.222,-23.4263 758.974,-25.2099 758.974,-25.2099 758.974,-25.2099 757.222,-23.4263 757.369,-26.7865 755.47,-21.6427 755.47,-21.6427"/>
</g>
<!-- v0&#45;&gt;v17 -->
<g id="edge18" class="edge"><title>v0&#45;&gt;v17</title>
<path fill="none" stroke="black" d="M776.849,-61.4665C738.166,-51.0015 662.525,-30.5381 621.704,-19.4947"/>
<polygon fill="black" stroke="black" points="616.422,-18.066 621.837,-17.1998 618.836,-18.7189 621.249,-19.3718 621.249,-19.3718 621.249,-19.3718 618.836,-18.7189 620.661,-21.5437 616.422,-18.066 616.422,-18.066"/>
</g>
<!-- v0&#45;&gt;v19 -->
<g id="edge21" class="edge"><title>v0&#45;&gt;v19</title>
<path fill="none" stroke="black" d="M816.156,-59.25C833.054,-49.4947 860.418,-33.6971 878.8,-23.0847"/>
<polygon fill="black" stroke="black" points="883.268,-20.5052 880.063,-24.9537 881.103,-21.7552 878.938,-23.0051 878.938,-23.0051 878.938,-23.0051 881.103,-21.7552 877.813,-21.0566 883.268,-20.5052 883.268,-20.5052"/>
</g>
<!-- v6&#45;&gt;v9 -->
<g id="edge24" class="edge"><title>v6&#45;&gt;v9</title>
<path fill="none" stroke="black" d="M186.542,-59.737C201.147,-50.1148 225.356,-34.1654 241.731,-23.377"/>
<polygon fill="black" stroke="black" points="246.128,-20.4805 243.19,-25.1102 244.04,-21.8559 241.953,-23.2313 241.953,-23.2313 241.953,-23.2313 244.04,-21.8559 240.715,-21.3524 246.128,-20.4805 246.128,-20.4805"/>
</g>
<!-- v6&#45;&gt;v10 -->
<g id="edge23" class="edge"><title>v6&#45;&gt;v10</title>
<path fill="none" stroke="black" d="M164.36,-59.0026C154.447,-49.7505 138.918,-35.2571 127.725,-24.8098"/>
<polygon fill="black" stroke="black" points="123.815,-21.1611 129.006,-22.9278 125.643,-22.8669 127.471,-24.5727 127.471,-24.5727 127.471,-24.5727 125.643,-22.8669 125.936,-26.2176 123.815,-21.1611 123.815,-21.1611"/>
</g>
<!-- v6&#45;&gt;v14 -->
<g id="edge22" class="edge"><title>v6&#45;&gt;v14</title>
<path fill="none" stroke="black" d="M176.503,-57.9883C178.626,-49.4941 181.708,-37.1697 184.146,-27.4169"/>
<polygon fill="black" stroke="black" points="185.424,-22.3039 186.394,-27.7003 184.818,-24.7292 184.211,-27.1546 184.211,-27.1546 184.211,-27.1546 184.818,-24.7292 182.028,-26.6089 185.424,-22.3039 185.424,-22.3039"/>
</g>
<!-- v21&#45;&gt;v22 -->
<g id="edge25" class="edge"><title>v21&#45;&gt;v22</title>
<path fill="none" stroke="black" d="M921.319,-59.0026C930.787,-49.8606 945.556,-35.6014 956.344,-25.1846"/>
<polygon fill="black" stroke="black" points="960.122,-21.5373 958.088,-26.629 958.324,-23.2738 956.525,-25.0103 956.525,-25.0103 956.525,-25.0103 958.324,-23.2738 954.962,-23.3916 960.122,-21.5373 960.122,-21.5373"/>
</g>
<!-- v16&#45;&gt;v18 -->
<g id="edge51" class="edge"><title>v16&#45;&gt;v18</title>
<path fill="none" stroke="green" d="M1220.99,-20.9455C1209.7,-27.8061 1193.56,-36.3271 1178,-40 1128.15,-51.7685 766.278,-53.9793 717,-40 704.086,-36.3366 691.241,-28.007 682.251,-21.2104"/>
</g>
<!-- v3&#45;&gt;v13 -->
<g id="edge26" class="edge"><title>v3&#45;&gt;v13</title>
<path fill="none" stroke="black" d="M456.821,-57.9883C456.67,-49.4941 456.449,-37.1697 456.275,-27.4169"/>
<polygon fill="black" stroke="black" points="456.184,-22.3039 458.523,-27.2629 456.229,-24.8035 456.273,-27.3031 456.273,-27.3031 456.273,-27.3031 456.229,-24.8035 454.024,-27.3433 456.184,-22.3039 456.184,-22.3039"/>
</g>
<!-- v3&#45;&gt;v12 -->
<g id="edge28" class="edge"><title>v3&#45;&gt;v12</title>
<path fill="none" stroke="black" d="M439.06,-60.3309C414.884,-49.9964 371.955,-31.6449 346.522,-20.7728"/>
<polygon fill="black" stroke="black" points="341.68,-18.7028 347.162,-18.5993 343.978,-19.6855 346.277,-20.6682 346.277,-20.6682 346.277,-20.6682 343.978,-19.6855 345.393,-22.7371 341.68,-18.7028 341.68,-18.7028"/>
</g>
<!-- v3&#45;&gt;v11 -->
<g id="edge27" class="edge"><title>v3&#45;&gt;v11</title>
<path fill="none" stroke="black" d="M445.441,-58.7527C433.579,-49.2632 415.069,-34.4551 402.066,-24.0526"/>
<polygon fill="black" stroke="black" points="397.885,-20.7077 403.195,-22.0743 399.837,-22.2695 401.789,-23.8313 401.789,-23.8313 401.789,-23.8313 399.837,-22.2695 400.383,-25.5882 397.885,-20.7077 397.885,-20.7077"/>
</g>
<!-- v3&#45;&gt;v15 -->
<g id="edge29" class="edge"><title>v3&#45;&gt;v15</title>
<path fill="none" stroke="black" d="M468.229,-58.7527C479.752,-49.2632 497.733,-34.4551 510.365,-24.0526"/>
<polygon fill="black" stroke="black" points="514.426,-20.7077 511.997,-25.6232 512.496,-22.297 510.567,-23.8863 510.567,-23.8863 510.567,-23.8863 512.496,-22.297 509.136,-22.1495 514.426,-20.7077 514.426,-20.7077"/>
</g>
<!-- v4&#45;&gt;v5 -->
<g id="edge30" class="edge"><title>v4&#45;&gt;v5</title>
<path fill="none" stroke="black" d="M1089.64,-57.9883C1084.94,-49.2286 1078.07,-36.3956 1072.77,-26.5103"/>
<polygon fill="black" stroke="black" points="1070.32,-21.925 1074.66,-25.2699 1071.5,-24.1287 1072.68,-26.3324 1072.68,-26.3324 1072.68,-26.3324 1071.5,-24.1287 1070.69,-27.3949 1070.32,-21.925 1070.32,-21.925"/>
</g>
<!-- v1&#45;&gt;v2 -->
<g id="edge31" class="edge"><title>v1&#45;&gt;v2</title>
<path fill="none" stroke="black" d="M1170.35,-57.9883C1166.28,-49.2286 1160.33,-36.3956 1155.74,-26.5103"/>
<polygon fill="black" stroke="black" points="1153.61,-21.925 1157.75,-25.5125 1154.66,-24.1925 1155.71,-26.4601 1155.71,-26.4601 1155.71,-26.4601 1154.66,-24.1925 1153.67,-27.4076 1153.61,-21.925 1153.61,-21.925"/>
</g>
<!-- v1&#45;&gt;v4 -->
<g id="edge33" class="edge"><title>v1&#45;&gt;v4</title>
<path fill="none" stroke="green" d="M1142.37,-69C1136.27,-69 1130.16,-69 1124.06,-69"/>
</g>
</g>
</svg>
