<?xml version="1.0" encoding="UTF-8" standalone="no"?>
<?xml-stylesheet href="style.css" type="text/css"?>
<!DOCTYPE svg PUBLIC "-//W3C//DTD SVG 1.1//EN"
 "http://www.w3.org/Graphics/SVG/1.1/DTD/svg11.dtd">
<!-- Generated by graphviz version 2.38.0 (20140413.2041)
 -->
<!-- Title: 516.svg Pages: 1 -->
<svg width="1364pt" height="179pt"
 viewBox="0.00 0.00 1364.00 179.00" xmlns="http://www.w3.org/2000/svg" xmlns:xlink="http://www.w3.org/1999/xlink">
<g id="graph0" class="graph" transform="scale(1 1) rotate(0) translate(4 175)">
<title>516.svg</title>
<polygon fill="white" stroke="none" points="-4,4 -4,-175 1360,-175 1360,4 -4,4"/>
<!-- r0 -->
<g id="node1" class="node"><title>r0</title>
<polygon fill="none" stroke="black" stroke-dasharray="5,2" points="190.5,-171 167.5,-171 167.5,-153 190.5,-153 190.5,-171"/>
<text text-anchor="middle" x="179" y="-159.8" font-family="serif" font-size="9.00">0</text>
</g>
<!-- v2 -->
<g id="v2_Aura" class="node"><title>v2</title>
<ellipse fill="none" stroke="black" cx="115" cy="-69" rx="21.5" ry="11"/>
<text text-anchor="middle" x="115" y="-66.8" font-family="sans-serif" font-size="9.00">Aura</text>
</g>
<!-- r0&#45;&gt;v2 -->
<g id="edge8" class="edge"><title>r0&#45;&gt;v2</title>
<path fill="none" stroke="black" d="M173.32,-152.924C162.434,-137.446 138.509,-103.427 124.928,-84.1163"/>
<polygon fill="black" stroke="black" points="121.712,-79.5439 126.429,-82.3393 123.15,-81.5888 124.589,-83.6337 124.589,-83.6337 124.589,-83.6337 123.15,-81.5888 122.748,-84.9281 121.712,-79.5439 121.712,-79.5439"/>
</g>
<!-- v0 -->
<g id="v0_Aura" class="node"><title>v0</title>
<ellipse fill="none" stroke="black" cx="176" cy="-69" rx="21.5" ry="11"/>
<text text-anchor="middle" x="176" y="-66.8" font-family="sans-serif" font-size="9.00">Aura</text>
</g>
<!-- r0&#45;&gt;v0 -->
<g id="edge7" class="edge"><title>r0&#45;&gt;v0</title>
<path fill="none" stroke="black" d="M178.734,-152.924C178.233,-137.736 177.144,-104.696 176.502,-85.2178"/>
<polygon fill="black" stroke="black" points="176.333,-80.1095 178.747,-85.0327 176.416,-82.6082 176.498,-85.1068 176.498,-85.1068 176.498,-85.1068 176.416,-82.6082 174.249,-85.181 176.333,-80.1095 176.333,-80.1095"/>
</g>
<!-- v4 -->
<g id="v4_Aura" class="node"><title>v4</title>
<ellipse fill="none" stroke="black" cx="964" cy="-69" rx="21.5" ry="11"/>
<text text-anchor="middle" x="964" y="-66.8" font-family="sans-serif" font-size="9.00">Aura</text>
</g>
<!-- r0&#45;&gt;v4 -->
<g id="edge5" class="edge"><title>r0&#45;&gt;v4</title>
<path fill="none" stroke="black" d="M190.835,-160.218C260.662,-155.497 625.814,-129.342 920,-80 926.649,-78.8848 933.8,-77.3892 940.365,-75.8951"/>
<polygon fill="black" stroke="black" points="945.252,-74.7591 940.891,-78.0828 942.817,-75.3251 940.382,-75.8912 940.382,-75.8912 940.382,-75.8912 942.817,-75.3251 939.872,-73.6996 945.252,-74.7591 945.252,-74.7591"/>
</g>
<!-- v1 -->
<g id="v1_Aura" class="node"><title>v1</title>
<ellipse fill="none" stroke="black" cx="276" cy="-69" rx="21.5" ry="11"/>
<text text-anchor="middle" x="276" y="-66.8" font-family="sans-serif" font-size="9.00">Aura</text>
</g>
<!-- r0&#45;&gt;v1 -->
<g id="edge6" class="edge"><title>r0&#45;&gt;v1</title>
<path fill="none" stroke="black" d="M190.668,-152.826C202.368,-144.406 220.657,-130.625 235,-117 246.128,-106.429 257.503,-93.1545 265.44,-83.4115"/>
<polygon fill="black" stroke="black" points="268.62,-79.4703 267.231,-84.7745 267.05,-81.4159 265.48,-83.3616 265.48,-83.3616 265.48,-83.3616 267.05,-81.4159 263.729,-81.9486 268.62,-79.4703 268.62,-79.4703"/>
</g>
<!-- v22 -->
<g id="v22_Field" class="node"><title>v22</title>
<ellipse fill="none" stroke="black" cx="25" cy="-11" rx="25" ry="11"/>
<text text-anchor="middle" x="25" y="-8.8" font-family="sans-serif" font-size="9.00">Field</text>
</g>
<!-- r0&#45;&gt;v22 -->
<g id="edge4" class="edge"><title>r0&#45;&gt;v22</title>
<path fill="none" stroke="black" d="M167.336,-156.2C151.359,-149.233 122.333,-135.145 102,-117 71.4235,-89.7137 45.5383,-48.417 33.0339,-26.6369"/>
<polygon fill="black" stroke="black" points="30.4301,-22.0447 34.8536,-25.2844 31.6632,-24.2194 32.8963,-26.3942 32.8963,-26.3942 32.8963,-26.3942 31.6632,-24.2194 30.939,-27.504 30.4301,-22.0447 30.4301,-22.0447"/>
</g>
<!-- r1 -->
<g id="node2" class="node"><title>r1</title>
<polygon fill="none" stroke="black" stroke-dasharray="5,2" points="1280.5,-171 1257.5,-171 1257.5,-153 1280.5,-153 1280.5,-171"/>
<text text-anchor="middle" x="1269" y="-159.8" font-family="serif" font-size="9.00">1</text>
</g>
<!-- v20 -->
<g id="v20_Locale" class="node"><title>v20</title>
<ellipse fill="none" stroke="black" cx="1327" cy="-11" rx="29" ry="11"/>
<text text-anchor="middle" x="1327" y="-8.8" font-family="sans-serif" font-size="9.00">Locale</text>
</g>
<!-- r1&#45;&gt;v20 -->
<g id="edge10" class="edge"><title>r1&#45;&gt;v20</title>
<path fill="none" stroke="black" d="M1273.43,-152.671C1281.01,-138.19 1296.65,-107.306 1307,-80 1313.7,-62.3249 1319.56,-41.3782 1323.18,-27.4499"/>
<polygon fill="black" stroke="black" points="1324.49,-22.2983 1325.44,-27.7 1323.88,-24.7203 1323.26,-27.1423 1323.26,-27.1423 1323.26,-27.1423 1323.88,-24.7203 1321.08,-26.5846 1324.49,-22.2983 1324.49,-22.2983"/>
</g>
<!-- v13 -->
<g id="v13_Locale" class="node"><title>v13</title>
<ellipse fill="none" stroke="black" cx="1269" cy="-69" rx="29" ry="11"/>
<text text-anchor="middle" x="1269" y="-66.8" font-family="sans-serif" font-size="9.00">Locale</text>
</g>
<!-- r1&#45;&gt;v13 -->
<g id="edge9" class="edge"><title>r1&#45;&gt;v13</title>
<path fill="none" stroke="black" d="M1269,-152.924C1269,-137.736 1269,-104.696 1269,-85.2178"/>
<polygon fill="black" stroke="black" points="1269,-80.1095 1271.25,-85.1095 1269,-82.6095 1269,-85.1095 1269,-85.1095 1269,-85.1095 1269,-82.6095 1266.75,-85.1096 1269,-80.1095 1269,-80.1095"/>
</g>
<!-- v3 -->
<g id="v3_Localeattack" class="node"><title>v3</title>
<ellipse fill="none" stroke="black" cx="842" cy="-69" rx="50.5" ry="11"/>
<text text-anchor="middle" x="842" y="-66.8" font-family="sans-serif" font-size="9.00">Localeattack</text>
</g>
<!-- r1&#45;&gt;v3 -->
<g id="edge11" class="edge"><title>r1&#45;&gt;v3</title>
<path fill="none" stroke="black" d="M1257.15,-158.873C1223.42,-152.783 1124.04,-134.583 1042,-117 984.591,-104.696 918.319,-88.7823 878.319,-78.9886"/>
<polygon fill="black" stroke="black" points="873.093,-77.7073 878.485,-76.7128 875.521,-78.3027 877.949,-78.898 877.949,-78.898 877.949,-78.898 875.521,-78.3027 877.413,-81.0833 873.093,-77.7073 873.093,-77.7073"/>
</g>
<!-- r2 -->
<g id="node3" class="node"><title>r2</title>
<polygon fill="none" stroke="black" stroke-dasharray="5,2" points="717.5,-171 694.5,-171 694.5,-153 717.5,-153 717.5,-171"/>
<text text-anchor="middle" x="706" y="-159.8" font-family="serif" font-size="9.00">2</text>
</g>
<!-- v11 -->
<g id="v11_Area(2)" class="node"><title>v11</title>
<ellipse fill="none" stroke="black" cx="1189" cy="-69" rx="32.5" ry="11"/>
<text text-anchor="middle" x="1189" y="-66.8" font-family="sans-serif" font-size="9.00">Area(2)</text>
</g>
<!-- r2&#45;&gt;v11 -->
<g id="edge2" class="edge"><title>r2&#45;&gt;v11</title>
<path fill="none" stroke="black" d="M717.512,-160.528C762.234,-158.497 928.513,-149.086 1061,-117 1098.75,-107.858 1140.68,-91.1303 1165.94,-80.2943"/>
<polygon fill="black" stroke="black" points="1170.76,-78.2097 1167.06,-82.2591 1168.46,-79.2018 1166.17,-80.1939 1166.17,-80.1939 1166.17,-80.1939 1168.46,-79.2018 1165.28,-78.1286 1170.76,-78.2097 1170.76,-78.2097"/>
</g>
<!-- v10 -->
<g id="v10_Area(0)" class="node"><title>v10</title>
<ellipse fill="none" stroke="black" cx="489" cy="-69" rx="32.5" ry="11"/>
<text text-anchor="middle" x="489" y="-66.8" font-family="sans-serif" font-size="9.00">Area(0)</text>
</g>
<!-- r2&#45;&gt;v10 -->
<g id="edge1" class="edge"><title>r2&#45;&gt;v10</title>
<path fill="none" stroke="black" d="M694.333,-156.107C660.103,-141.753 559.439,-99.539 512.988,-80.0596"/>
<polygon fill="black" stroke="black" points="508.132,-78.0233 513.614,-77.882 510.438,-78.9901 512.743,-79.957 512.743,-79.957 512.743,-79.957 510.438,-78.9901 511.873,-82.0319 508.132,-78.0233 508.132,-78.0233"/>
</g>
<!-- v18 -->
<g id="v18_Area(1)" class="node"><title>v18</title>
<ellipse fill="none" stroke="black" cx="706" cy="-11" rx="32.5" ry="11"/>
<text text-anchor="middle" x="706" y="-8.8" font-family="sans-serif" font-size="9.00">Area(1)</text>
</g>
<!-- r2&#45;&gt;v18 -->
<g id="edge3" class="edge"><title>r2&#45;&gt;v18</title>
<path fill="none" stroke="black" d="M706,-152.989C706,-129.218 706,-58.7895 706,-27.3986"/>
<polygon fill="black" stroke="black" points="706,-22.3591 708.25,-27.359 706,-24.8591 706,-27.3591 706,-27.3591 706,-27.3591 706,-24.8591 703.75,-27.3591 706,-22.3591 706,-22.3591"/>
</g>
<!-- e0 -->
<g id="node4" class="node"><title>e0</title>
</g>
<!-- e0&#45;&gt;v0 -->
<g id="edge32" class="edge"><title>e0&#45;&gt;v0</title>
<path fill="none" stroke="green" d="M226,-116C226,-116 200.17,-92.2363 185.641,-78.8693"/>
</g>
<!-- v16 -->
<g id="v16_Child" class="node"><title>v16</title>
<ellipse fill="none" stroke="black" cx="161" cy="-11" rx="25" ry="11"/>
<text text-anchor="middle" x="161" y="-8.8" font-family="sans-serif" font-size="9.00">Child</text>
</g>
<!-- e0&#45;&gt;v16 -->
<g id="edge33" class="edge"><title>e0&#45;&gt;v16</title>
<path fill="none" stroke="green" d="M226,-116C226,-116 220.327,-81.1998 206,-58 196.96,-43.3616 182.512,-29.6887 172.433,-21.1169"/>
</g>
<!-- v23 -->
<g id="v23_GPS(1)" class="node"><title>v23</title>
<ellipse fill="none" stroke="black" cx="565" cy="-11" rx="29" ry="11"/>
<text text-anchor="middle" x="565" y="-8.8" font-family="sans-serif" font-size="9.00">GPS(1)</text>
</g>
<!-- e0&#45;&gt;v23 -->
<g id="edge34" class="edge"><title>e0&#45;&gt;v23</title>
<path fill="none" stroke="green" d="M226,-116C226,-116 474.112,-118.784 530,-80 549.962,-66.147 559.27,-37.3514 562.955,-22.0553"/>
</g>
<!-- e1 -->
<g id="node5" class="node"><title>e1</title>
</g>
<!-- v8 -->
<g id="v8_Liongroup" class="node"><title>v8</title>
<ellipse fill="none" stroke="black" cx="796" cy="-11" rx="39.5" ry="11"/>
<text text-anchor="middle" x="796" y="-8.8" font-family="sans-serif" font-size="9.00">Liongroup</text>
</g>
<!-- e1&#45;&gt;v8 -->
<g id="edge37" class="edge"><title>e1&#45;&gt;v8</title>
<path fill="none" stroke="green" d="M413,-116C413,-116 518.253,-101.928 600,-80 665.053,-62.5505 739.65,-34.3099 775.137,-20.3541"/>
</g>
<!-- v6 -->
<g id="v6_Childgroup" class="node"><title>v6</title>
<ellipse fill="none" stroke="black" cx="247" cy="-11" rx="43" ry="11"/>
<text text-anchor="middle" x="247" y="-8.8" font-family="sans-serif" font-size="9.00">Childgroup</text>
</g>
<!-- e1&#45;&gt;v6 -->
<g id="edge36" class="edge"><title>e1&#45;&gt;v6</title>
<path fill="none" stroke="green" d="M413,-116C413,-116 302.887,-47.0133 262.024,-21.4127"/>
</g>
<!-- v21 -->
<g id="v21_GPS(5)" class="node"><title>v21</title>
<ellipse fill="none" stroke="black" cx="413" cy="-11" rx="29" ry="11"/>
<text text-anchor="middle" x="413" y="-8.8" font-family="sans-serif" font-size="9.00">GPS(5)</text>
</g>
<!-- e1&#45;&gt;v21 -->
<g id="edge39" class="edge"><title>e1&#45;&gt;v21</title>
<path fill="none" stroke="green" d="M413,-116C413,-116 413,-48.6577 413,-22.3521"/>
</g>
<!-- e1&#45;&gt;v1 -->
<g id="edge35" class="edge"><title>e1&#45;&gt;v1</title>
<path fill="none" stroke="green" d="M413,-116C413,-116 329.799,-88.064 293.074,-75.7329"/>
</g>
<!-- v17 -->
<g id="v17_Lion" class="node"><title>v17</title>
<ellipse fill="none" stroke="black" cx="634" cy="-11" rx="21.5" ry="11"/>
<text text-anchor="middle" x="634" y="-8.8" font-family="sans-serif" font-size="9.00">Lion</text>
</g>
<!-- e1&#45;&gt;v17 -->
<g id="edge38" class="edge"><title>e1&#45;&gt;v17</title>
<path fill="none" stroke="green" d="M413,-116C413,-116 509.379,-116.447 572,-80 597.406,-65.2133 618.32,-36.5536 628.075,-21.6021"/>
</g>
<!-- e2 -->
<g id="node6" class="node"><title>e2</title>
</g>
<!-- e2&#45;&gt;v2 -->
<g id="edge40" class="edge"><title>e2&#45;&gt;v2</title>
<path fill="none" stroke="green" d="M112,-116C112,-116 113.45,-93.7609 114.334,-80.2089"/>
</g>
<!-- v15 -->
<g id="v15_Child" class="node"><title>v15</title>
<ellipse fill="none" stroke="black" cx="93" cy="-11" rx="25" ry="11"/>
<text text-anchor="middle" x="93" y="-8.8" font-family="sans-serif" font-size="9.00">Child</text>
</g>
<!-- e2&#45;&gt;v15 -->
<g id="edge41" class="edge"><title>e2&#45;&gt;v15</title>
<path fill="none" stroke="green" d="M112,-116C112,-116 90.5783,-99.1726 84,-80 77.198,-60.1755 84.0027,-35.469 88.9198,-21.9635"/>
</g>
<!-- v19 -->
<g id="v19_GPS(6)" class="node"><title>v19</title>
<ellipse fill="none" stroke="black" cx="337" cy="-11" rx="29" ry="11"/>
<text text-anchor="middle" x="337" y="-8.8" font-family="sans-serif" font-size="9.00">GPS(6)</text>
</g>
<!-- e2&#45;&gt;v19 -->
<g id="edge42" class="edge"><title>e2&#45;&gt;v19</title>
<path fill="none" stroke="green" d="M112,-116C112,-116 271.449,-106.997 306,-80 324.607,-65.4612 332.426,-37.2254 335.391,-22.1164"/>
</g>
<!-- e4 -->
<g id="node7" class="node"><title>e4</title>
</g>
<!-- v7 -->
<g id="v7_Liongroup" class="node"><title>v7</title>
<ellipse fill="none" stroke="black" cx="998" cy="-11" rx="39.5" ry="11"/>
<text text-anchor="middle" x="998" y="-8.8" font-family="sans-serif" font-size="9.00">Liongroup</text>
</g>
<!-- e4&#45;&gt;v7 -->
<g id="edge46" class="edge"><title>e4&#45;&gt;v7</title>
<path fill="none" stroke="green" d="M1052,-116C1052,-116 1016.69,-48.0023 1003.18,-21.972"/>
</g>
<!-- v12 -->
<g id="v12_GPS(9)" class="node"><title>v12</title>
<ellipse fill="none" stroke="black" cx="1189" cy="-11" rx="29" ry="11"/>
<text text-anchor="middle" x="1189" y="-8.8" font-family="sans-serif" font-size="9.00">GPS(9)</text>
</g>
<!-- e4&#45;&gt;v12 -->
<g id="edge47" class="edge"><title>e4&#45;&gt;v12</title>
<path fill="none" stroke="green" d="M1052,-116C1052,-116 1083.99,-80.8694 1114,-58 1133.44,-43.1876 1157.88,-28.922 1173.47,-20.3057"/>
</g>
<!-- v14 -->
<g id="v14_Lion" class="node"><title>v14</title>
<ellipse fill="none" stroke="black" cx="1258" cy="-11" rx="21.5" ry="11"/>
<text text-anchor="middle" x="1258" y="-8.8" font-family="sans-serif" font-size="9.00">Lion</text>
</g>
<!-- e4&#45;&gt;v14 -->
<g id="edge48" class="edge"><title>e4&#45;&gt;v14</title>
<path fill="none" stroke="green" d="M1052,-116C1052,-116 1086.95,-96.8455 1114,-80 1128.96,-70.681 1131.45,-66.3026 1147,-58 1179.02,-40.9039 1218.79,-25.797 1240.99,-17.8731"/>
</g>
<!-- v5 -->
<g id="v5_Childgroup" class="node"><title>v5</title>
<ellipse fill="none" stroke="black" cx="1099" cy="-11" rx="43" ry="11"/>
<text text-anchor="middle" x="1099" y="-8.8" font-family="sans-serif" font-size="9.00">Childgroup</text>
</g>
<!-- e4&#45;&gt;v5 -->
<g id="edge45" class="edge"><title>e4&#45;&gt;v5</title>
<path fill="none" stroke="green" d="M1052,-116C1052,-116 1064.42,-83.3812 1076,-58 1081.71,-45.49 1088.87,-31.3847 1093.67,-22.1306"/>
</g>
<!-- e4&#45;&gt;v4 -->
<g id="edge44" class="edge"><title>e4&#45;&gt;v4</title>
<path fill="none" stroke="green" d="M1052,-116C1052,-116 1003.01,-90.3938 978.139,-77.3907"/>
</g>
<!-- e5 -->
<g id="node8" class="node"><title>e5</title>
</g>
<!-- e5&#45;&gt;v8 -->
<g id="edge50" class="edge"><title>e5&#45;&gt;v8</title>
<path fill="none" stroke="green" d="M911,-68C911,-68 906.191,-61.5446 901,-58 875.526,-40.6036 842.407,-27.4099 820.239,-19.7071"/>
</g>
<!-- e5&#45;&gt;v7 -->
<g id="edge49" class="edge"><title>e5&#45;&gt;v7</title>
<path fill="none" stroke="green" d="M911,-68C911,-68 958.923,-37.1528 983.634,-21.2473"/>
</g>
<!-- v9 -->
<g id="v9_Impalaheld" class="node"><title>v9</title>
<ellipse fill="none" stroke="black" cx="897" cy="-11" rx="43" ry="11"/>
<text text-anchor="middle" x="897" y="-8.8" font-family="sans-serif" font-size="9.00">Impalaheld</text>
</g>
<!-- e5&#45;&gt;v9 -->
<g id="edge51" class="edge"><title>e5&#45;&gt;v9</title>
<path fill="none" stroke="green" d="M911,-68C911,-68 903.53,-38.1193 899.503,-22.0117"/>
</g>
<!-- v2&#45;&gt;v15 -->
<g id="edge12" class="edge"><title>v2&#45;&gt;v15</title>
<path fill="none" stroke="black" d="M111.067,-57.9883C107.657,-49.3083 102.676,-36.6286 98.8067,-26.7806"/>
<polygon fill="black" stroke="black" points="96.8991,-21.925 100.822,-25.756 97.8133,-24.2519 98.7274,-26.5788 98.7274,-26.5788 98.7274,-26.5788 97.8133,-24.2519 96.6332,-27.4015 96.8991,-21.925 96.8991,-21.925"/>
</g>
<!-- v2&#45;&gt;v6 -->
<g id="edge14" class="edge"><title>v2&#45;&gt;v6</title>
<path fill="none" stroke="black" d="M130.66,-61.3562C153.034,-51.8646 194.407,-34.312 221.306,-22.9004"/>
<polygon fill="black" stroke="black" points="226.152,-20.8444 222.428,-24.8685 223.851,-21.8208 221.55,-22.7972 221.55,-22.7972 221.55,-22.7972 223.851,-21.8208 220.671,-20.7259 226.152,-20.8444 226.152,-20.8444"/>
</g>
<!-- v2&#45;&gt;v16 -->
<g id="edge13" class="edge"><title>v2&#45;&gt;v16</title>
<path fill="none" stroke="black" d="M122.803,-58.5004C130.16,-49.5445 141.271,-36.018 149.616,-25.859"/>
<polygon fill="black" stroke="black" points="153.004,-21.7345 151.569,-27.0263 151.417,-23.6663 149.83,-25.5981 149.83,-25.5981 149.83,-25.5981 151.417,-23.6663 148.091,-24.1699 153.004,-21.7345 153.004,-21.7345"/>
</g>
<!-- v13&#45;&gt;v14 -->
<g id="edge15" class="edge"><title>v13&#45;&gt;v14</title>
<path fill="none" stroke="black" d="M1267.03,-57.9883C1265.36,-49.4941 1262.94,-37.1697 1261.03,-27.4169"/>
<polygon fill="black" stroke="black" points="1260.02,-22.3039 1263.2,-26.7764 1260.51,-24.757 1260.99,-27.2101 1260.99,-27.2101 1260.99,-27.2101 1260.51,-24.757 1258.78,-27.6438 1260.02,-22.3039 1260.02,-22.3039"/>
</g>
<!-- v24 -->
<g id="v24_GPS(0)" class="node"><title>v24</title>
<ellipse fill="none" stroke="black" cx="489" cy="-11" rx="29" ry="11"/>
<text text-anchor="middle" x="489" y="-8.8" font-family="sans-serif" font-size="9.00">GPS(0)</text>
</g>
<!-- v9&#45;&gt;v24 -->
<g id="edge52" class="edge"><title>v9&#45;&gt;v24</title>
<path fill="none" stroke="green" d="M880.35,-21.2431C868.26,-28.055 851.24,-36.3897 835,-40 770.139,-54.4194 599.922,-58.1336 536,-40 523.086,-36.3366 510.241,-28.007 501.251,-21.2104"/>
</g>
<!-- v11&#45;&gt;v13 -->
<g id="edge53" class="edge"><title>v11&#45;&gt;v13</title>
<path fill="none" stroke="green" d="M1221.5,-69C1227.56,-69 1233.62,-69 1239.68,-69"/>
</g>
<!-- v11&#45;&gt;v12 -->
<g id="edge16" class="edge"><title>v11&#45;&gt;v12</title>
<path fill="none" stroke="black" d="M1189,-57.9883C1189,-49.4941 1189,-37.1697 1189,-27.4169"/>
<polygon fill="black" stroke="black" points="1189,-22.3039 1191.25,-27.3038 1189,-24.8039 1189,-27.3039 1189,-27.3039 1189,-27.3039 1189,-24.8039 1186.75,-27.3039 1189,-22.3039 1189,-22.3039"/>
</g>
<!-- v0&#45;&gt;v15 -->
<g id="edge17" class="edge"><title>v0&#45;&gt;v15</title>
<path fill="none" stroke="black" d="M163.753,-59.737C149.574,-50.1704 126.125,-34.3496 110.14,-23.5646"/>
<polygon fill="black" stroke="black" points="105.844,-20.6656 111.247,-21.5969 107.916,-22.0638 109.988,-23.4621 109.988,-23.4621 109.988,-23.4621 107.916,-22.0638 108.73,-25.3273 105.844,-20.6656 105.844,-20.6656"/>
</g>
<!-- v0&#45;&gt;v6 -->
<g id="edge19" class="edge"><title>v0&#45;&gt;v6</title>
<path fill="none" stroke="black" d="M187.094,-59.25C198.828,-49.9946 217.459,-35.3002 230.828,-24.7554"/>
<polygon fill="black" stroke="black" points="234.795,-21.6267 232.262,-26.4898 232.832,-23.175 230.869,-24.7232 230.869,-24.7232 230.869,-24.7232 232.832,-23.175 229.475,-22.9566 234.795,-21.6267 234.795,-21.6267"/>
</g>
<!-- v0&#45;&gt;v16 -->
<g id="edge18" class="edge"><title>v0&#45;&gt;v16</title>
<path fill="none" stroke="black" d="M173.318,-57.9883C171.022,-49.4154 167.681,-36.9411 165.057,-27.1466"/>
<polygon fill="black" stroke="black" points="163.76,-22.3039 167.227,-26.5514 164.407,-24.7187 165.054,-27.1336 165.054,-27.1336 165.054,-27.1336 164.407,-24.7187 162.88,-27.7158 163.76,-22.3039 163.76,-22.3039"/>
</g>
<!-- v10&#45;&gt;v21 -->
<g id="edge23" class="edge"><title>v10&#45;&gt;v21</title>
<path fill="none" stroke="black" d="M476.45,-58.7527C463.612,-49.2933 443.602,-34.549 429.492,-24.1517"/>
<polygon fill="black" stroke="black" points="425.316,-21.0752 430.676,-22.2298 427.329,-22.5582 429.342,-24.0412 429.342,-24.0412 429.342,-24.0412 427.329,-22.5582 428.007,-25.8526 425.316,-21.0752 425.316,-21.0752"/>
</g>
<!-- v10&#45;&gt;v24 -->
<g id="edge21" class="edge"><title>v10&#45;&gt;v24</title>
<path fill="none" stroke="black" d="M489,-57.9883C489,-49.4941 489,-37.1697 489,-27.4169"/>
<polygon fill="black" stroke="black" points="489,-22.3039 491.25,-27.3038 489,-24.8039 489,-27.3039 489,-27.3039 489,-27.3039 489,-24.8039 486.75,-27.3039 489,-22.3039 489,-22.3039"/>
</g>
<!-- v10&#45;&gt;v23 -->
<g id="edge22" class="edge"><title>v10&#45;&gt;v23</title>
<path fill="none" stroke="black" d="M501.55,-58.7527C514.388,-49.2933 534.398,-34.549 548.508,-24.1517"/>
<polygon fill="black" stroke="black" points="552.684,-21.0752 549.993,-25.8526 550.671,-22.5582 548.658,-24.0412 548.658,-24.0412 548.658,-24.0412 550.671,-22.5582 547.324,-22.2298 552.684,-21.0752 552.684,-21.0752"/>
</g>
<!-- v10&#45;&gt;v19 -->
<g id="edge20" class="edge"><title>v10&#45;&gt;v19</title>
<path fill="none" stroke="black" d="M468.501,-60.4476C440.77,-50.2312 391.365,-32.0292 361.646,-21.0801"/>
<polygon fill="black" stroke="black" points="356.694,-19.2556 362.163,-18.8729 359.04,-20.1198 361.385,-20.9841 361.385,-20.9841 361.385,-20.9841 359.04,-20.1198 360.607,-23.0954 356.694,-19.2556 356.694,-19.2556"/>
</g>
<!-- v3&#45;&gt;v8 -->
<g id="edge27" class="edge"><title>v3&#45;&gt;v8</title>
<path fill="none" stroke="black" d="M833.776,-57.9883C826.45,-49.0694 815.655,-35.9276 807.479,-25.974"/>
<polygon fill="black" stroke="black" points="804.153,-21.925 809.065,-24.3605 805.74,-23.8568 807.326,-25.7887 807.326,-25.7887 807.326,-25.7887 805.74,-23.8568 805.588,-27.2168 804.153,-21.925 804.153,-21.925"/>
</g>
<!-- v3&#45;&gt;v7 -->
<g id="edge26" class="edge"><title>v3&#45;&gt;v7</title>
<path fill="none" stroke="black" d="M866.375,-59.25C894.565,-49.1304 940.869,-32.5087 970.371,-21.918"/>
<polygon fill="black" stroke="black" points="975.316,-20.1429 971.371,-23.95 972.963,-20.9876 970.61,-21.8323 970.61,-21.8323 970.61,-21.8323 972.963,-20.9876 969.85,-19.7146 975.316,-20.1429 975.316,-20.1429"/>
</g>
<!-- v3&#45;&gt;v9 -->
<g id="edge25" class="edge"><title>v3&#45;&gt;v9</title>
<path fill="none" stroke="black" d="M851.833,-57.9883C860.671,-48.9897 873.73,-35.6926 883.537,-25.7082"/>
<polygon fill="black" stroke="black" points="887.252,-21.925 885.354,-27.0689 885.5,-23.7086 883.749,-25.4923 883.749,-25.4923 883.749,-25.4923 885.5,-23.7086 882.143,-23.9157 887.252,-21.925 887.252,-21.925"/>
</g>
<!-- v3&#45;&gt;v10 -->
<g id="edge43" class="edge"><title>v3&#45;&gt;v10</title>
<path fill="none" stroke="green" d="M791.335,-69C701.473,-69 611.611,-69 521.749,-69"/>
</g>
<!-- v3&#45;&gt;v17 -->
<g id="edge24" class="edge"><title>v3&#45;&gt;v17</title>
<path fill="none" stroke="black" d="M809.985,-60.4307C774.211,-51.8093 714.659,-36.9696 664,-22 661.367,-21.2221 658.619,-20.3666 655.9,-19.4935"/>
<polygon fill="black" stroke="black" points="651.07,-17.9158 656.521,-17.3294 653.446,-18.692 655.822,-19.4682 655.822,-19.4682 655.822,-19.4682 653.446,-18.692 655.124,-21.607 651.07,-17.9158 651.07,-17.9158"/>
</g>
<!-- v4&#45;&gt;v5 -->
<g id="edge28" class="edge"><title>v4&#45;&gt;v5</title>
<path fill="none" stroke="black" d="M979.75,-61.4665C1002.76,-51.9206 1045.83,-34.0554 1073.42,-22.6092"/>
<polygon fill="black" stroke="black" points="1078.05,-20.69 1074.29,-24.6841 1075.74,-21.6479 1073.43,-22.6058 1073.43,-22.6058 1073.43,-22.6058 1075.74,-21.6479 1072.57,-20.5276 1078.05,-20.69 1078.05,-20.69"/>
</g>
<!-- v1&#45;&gt;v15 -->
<g id="edge29" class="edge"><title>v1&#45;&gt;v15</title>
<path fill="none" stroke="black" d="M258.453,-62.6305C225.577,-52.5699 154.655,-30.867 117.241,-19.4181"/>
<polygon fill="black" stroke="black" points="112.411,-17.94 117.851,-17.2516 114.802,-18.6715 117.192,-19.4031 117.192,-19.4031 117.192,-19.4031 114.802,-18.6715 116.534,-21.5546 112.411,-17.94 112.411,-17.94"/>
</g>
<!-- v1&#45;&gt;v6 -->
<g id="edge31" class="edge"><title>v1&#45;&gt;v6</title>
<path fill="none" stroke="black" d="M270.949,-58.2455C266.43,-49.5202 259.744,-36.6082 254.583,-26.6435"/>
<polygon fill="black" stroke="black" points="252.189,-22.0198 256.486,-25.425 253.338,-24.2397 254.488,-26.4597 254.488,-26.4597 254.488,-26.4597 253.338,-24.2397 252.49,-27.4944 252.189,-22.0198 252.189,-22.0198"/>
</g>
<!-- v1&#45;&gt;v16 -->
<g id="edge30" class="edge"><title>v1&#45;&gt;v16</title>
<path fill="none" stroke="black" d="M261.435,-60.9076C241.235,-51.0708 204.609,-33.2357 181.61,-22.0364"/>
<polygon fill="black" stroke="black" points="176.92,-19.7525 182.401,-19.9187 179.168,-20.8471 181.416,-21.9416 181.416,-21.9416 181.416,-21.9416 179.168,-20.8471 180.431,-23.9645 176.92,-19.7525 176.92,-19.7525"/>
</g>
<!-- v18&#45;&gt;v20 -->
<g id="edge54" class="edge"><title>v18&#45;&gt;v20</title>
<path fill="none" stroke="green" d="M719.138,-21.2189C728.752,-28.0195 742.433,-36.3504 756,-40 812.223,-55.1248 1223.99,-55.8897 1280,-40 1292.91,-36.3366 1305.76,-28.007 1314.75,-21.2104"/>
</g>
</g>
</svg>
